<mxfile modified="2023-06-01T18:03:51.239Z" host="app.diagrams.net" agent="Mozilla/5.0 (Windows NT 10.0; Win64; x64) AppleWebKit/537.36 (KHTML, like Gecko) Chrome/113.0.0.0 Safari/537.36" etag="6kQzQq9JKafnLkH8PDbb" version="21.3.5" type="github">
  <diagram id="WI9T0HZ2pTsCkuznbFz-" name="Page-1">
    <mxGraphModel dx="4400" dy="2260" grid="1" gridSize="10" guides="1" tooltips="1" connect="1" arrows="1" fold="1" page="1" pageScale="1" pageWidth="1169" pageHeight="827" math="0" shadow="0">
      <root>
        <mxCell id="0" />
        <mxCell id="1" parent="0" />
        <mxCell id="r1PghD8o48_MAa_awycN-72" style="edgeStyle=orthogonalEdgeStyle;rounded=0;orthogonalLoop=1;jettySize=auto;html=1;entryX=1.005;entryY=0.744;entryDx=0;entryDy=0;entryPerimeter=0;" edge="1" parent="1" source="r1PghD8o48_MAa_awycN-3" target="r1PghD8o48_MAa_awycN-67">
          <mxGeometry relative="1" as="geometry">
            <Array as="points">
              <mxPoint x="1480" y="793" />
            </Array>
          </mxGeometry>
        </mxCell>
        <mxCell id="r1PghD8o48_MAa_awycN-73" style="edgeStyle=orthogonalEdgeStyle;rounded=0;orthogonalLoop=1;jettySize=auto;html=1;" edge="1" parent="1" source="r1PghD8o48_MAa_awycN-3" target="r1PghD8o48_MAa_awycN-75">
          <mxGeometry relative="1" as="geometry">
            <Array as="points">
              <mxPoint x="1485" y="50" />
              <mxPoint x="2555" y="50" />
            </Array>
          </mxGeometry>
        </mxCell>
        <mxCell id="r1PghD8o48_MAa_awycN-3" value="" style="sketch=0;aspect=fixed;pointerEvents=1;shadow=0;dashed=0;html=1;strokeColor=none;labelPosition=center;verticalLabelPosition=bottom;verticalAlign=top;align=center;fillColor=#00188D;shape=mxgraph.mscae.enterprise.android_phone" vertex="1" parent="1">
          <mxGeometry x="1430" y="160" width="110" height="183.33" as="geometry" />
        </mxCell>
        <mxCell id="r1PghD8o48_MAa_awycN-35" style="edgeStyle=orthogonalEdgeStyle;rounded=0;orthogonalLoop=1;jettySize=auto;html=1;entryX=0.5;entryY=1;entryDx=0;entryDy=0;exitX=0.25;exitY=0;exitDx=0;exitDy=0;" edge="1" parent="1" source="r1PghD8o48_MAa_awycN-75" target="r1PghD8o48_MAa_awycN-12">
          <mxGeometry relative="1" as="geometry">
            <mxPoint x="850" y="285" as="targetPoint" />
            <Array as="points">
              <mxPoint x="2330" y="1080" />
              <mxPoint x="2330" y="500" />
              <mxPoint x="1015" y="500" />
            </Array>
          </mxGeometry>
        </mxCell>
        <mxCell id="r1PghD8o48_MAa_awycN-37" value="GET ID_TOKEN" style="edgeLabel;html=1;align=center;verticalAlign=middle;resizable=0;points=[];" vertex="1" connectable="0" parent="r1PghD8o48_MAa_awycN-35">
          <mxGeometry x="-0.1742" y="-5" relative="1" as="geometry">
            <mxPoint as="offset" />
          </mxGeometry>
        </mxCell>
        <mxCell id="r1PghD8o48_MAa_awycN-69" style="edgeStyle=orthogonalEdgeStyle;rounded=0;orthogonalLoop=1;jettySize=auto;html=1;" edge="1" parent="1" source="r1PghD8o48_MAa_awycN-12" target="r1PghD8o48_MAa_awycN-67">
          <mxGeometry relative="1" as="geometry">
            <Array as="points">
              <mxPoint x="980" y="761" />
            </Array>
          </mxGeometry>
        </mxCell>
        <mxCell id="r1PghD8o48_MAa_awycN-12" value="SYNERGY FRONTEND" style="swimlane;startSize=23;" vertex="1" parent="1">
          <mxGeometry x="850" y="100" width="330" height="290" as="geometry" />
        </mxCell>
        <mxCell id="r1PghD8o48_MAa_awycN-33" value="SYNERGY FRONT END" style="shape=image;verticalLabelPosition=bottom;labelBackgroundColor=#ffffff;verticalAlign=top;aspect=fixed;imageAspect=0;image=data:image/svg+xml,PHN2ZyB4bWxuczpkYz0iaHR0cDovL3B1cmwub3JnL2RjL2VsZW1lbnRzLzEuMS8iIHhtbG5zOmNjPSJodHRwOi8vY3JlYXRpdmVjb21tb25zLm9yZy9ucyMiIHhtbG5zOnJkZj0iaHR0cDovL3d3dy53My5vcmcvMTk5OS8wMi8yMi1yZGYtc3ludGF4LW5zIyIgeG1sbnM6c3ZnPSJodHRwOi8vd3d3LnczLm9yZy8yMDAwL3N2ZyIgeG1sbnM9Imh0dHA6Ly93d3cudzMub3JnLzIwMDAvc3ZnIiB4bWxuczpzb2RpcG9kaT0iaHR0cDovL3NvZGlwb2RpLnNvdXJjZWZvcmdlLm5ldC9EVEQvc29kaXBvZGktMC5kdGQiIHhtbG5zOmlua3NjYXBlPSJodHRwOi8vd3d3Lmlua3NjYXBlLm9yZy9uYW1lc3BhY2VzL2lua3NjYXBlIiB2ZXJzaW9uPSIxLjEiIGlkPSJzdmc2MTMyMyIgaW5rc2NhcGU6dmVyc2lvbj0iMC45Mi4zICgyNDA1NTQ2LCAyMDE4LTAzLTExKSIgc29kaXBvZGk6ZG9jbmFtZT0iYXp1cmVfcG9ydGFsX3dlYl9hcHBzLnN2ZyIgeD0iMHB4IiB5PSIwcHgiIHZpZXdCb3g9IjAgMCA1MS4wMjkzMTcgNTEuMDIiIHhtbDpzcGFjZT0icHJlc2VydmUiIHdpZHRoPSI1MS4wMjkzMTYiIGhlaWdodD0iNTEuMDIiPjxtZXRhZGF0YSBpZD0ibWV0YWRhdGExMTY1NSI+PHJkZjpSREY+PGNjOldvcmsgcmRmOmFib3V0PSIiPjxkYzpmb3JtYXQ+aW1hZ2Uvc3ZnK3htbDwvZGM6Zm9ybWF0PjxkYzp0eXBlIHJkZjpyZXNvdXJjZT0iaHR0cDovL3B1cmwub3JnL2RjL2RjbWl0eXBlL1N0aWxsSW1hZ2UiLz48ZGM6dGl0bGUvPjwvY2M6V29yaz48L3JkZjpSREY+PC9tZXRhZGF0YT48ZGVmcyBpZD0iZGVmczExNjUzIi8+JiN4YTs8ZmlsdGVyIGlkPSJmaWx0ZXJfMiI+JiN4YTsJPGZlR2F1c3NpYW5CbHVyIGlkPSJmZUdhdXNzaWFuQmx1cjYxMjk2IiBzdGREZXZpYXRpb249IjIiLz4mI3hhOzwvZmlsdGVyPiYjeGE7PHNvZGlwb2RpOm5hbWVkdmlldyBib3JkZXJjb2xvcj0iIzY2NjY2NiIgYm9yZGVyb3BhY2l0eT0iMSIgZml0LW1hcmdpbi1ib3R0b209IjAiIGZpdC1tYXJnaW4tbGVmdD0iMCIgZml0LW1hcmdpbi1yaWdodD0iMCIgZml0LW1hcmdpbi10b3A9IjAiIGdyaWR0b2xlcmFuY2U9IjEwIiBndWlkZXRvbGVyYW5jZT0iMTAiIGlkPSJuYW1lZHZpZXc2MTMyNSIgaW5rc2NhcGU6Y3VycmVudC1sYXllcj0ic3ZnNjEzMjMiIGlua3NjYXBlOmN4PSItNDUuMDA0ODE4IiBpbmtzY2FwZTpjeT0iMzkuNDkwNjM4IiBpbmtzY2FwZTpwYWdlb3BhY2l0eT0iMCIgaW5rc2NhcGU6cGFnZXNoYWRvdz0iMiIgaW5rc2NhcGU6d2luZG93LWhlaWdodD0iMTAxNyIgaW5rc2NhcGU6d2luZG93LW1heGltaXplZD0iMSIgaW5rc2NhcGU6d2luZG93LXdpZHRoPSIxOTIwIiBpbmtzY2FwZTp3aW5kb3cteD0iLTgiIGlua3NjYXBlOndpbmRvdy15PSItOCIgaW5rc2NhcGU6em9vbT0iNC4zMDY1ODM0IiBvYmplY3R0b2xlcmFuY2U9IjEwIiBwYWdlY29sb3I9IiNmZmZmZmYiIHNob3dncmlkPSJmYWxzZSI+JiN4YTsJPC9zb2RpcG9kaTpuYW1lZHZpZXc+JiN4YTsmI3hhOzxwYXRoIGlkPSJwYXRoNjEzMDkiIGlua3NjYXBlOmNvbm5lY3Rvci1jdXJ2YXR1cmU9IjAiIHN0eWxlPSJmaWxsOiM1OWI0ZDkiIGQ9Im0gNDEuMDE0NTI2LDQ1Ljc2IGMgLTQuNjIsMy41MyAtMTAuMDcsNS4yNiAtMTUuNDcsNS4yNiAtNy42OCwwIC0xNS4yNywtMy40NSAtMjAuMjc5OTk5OSwtMTAuMDEgLTguNTcsLTExLjE5IC02LjQ2LC0yNy4xOCA0Ljc0OTk5OTksLTM1Ljc2IDQuNjIsLTMuNTUgMTAuMDgsLTUuMjUgMTUuNDgsLTUuMjUgNy42NywwIDE1LjI2LDMuNDUgMjAuMjgsMTAuMDEgOC41NywxMS4xOCA2LjQzLDI3LjE5IC00Ljc2LDM1Ljc1IHoiLz4mI3hhOyYjeGE7PHBhdGggaWQ9InBhdGg2MTMxNyIgaW5rc2NhcGU6Y29ubmVjdG9yLWN1cnZhdHVyZT0iMCIgc3R5bGU9ImZpbGw6I2ZmZmZmZiIgZD0ibSAzNi4zMzQ1MjYsMjkuOTggYyAxLjg1LDIuNDEgNS4yOSwyLjg1IDcuNywxLjAyIDAuMTIsLTAuMDkgMC4yMiwtMC4yMSAwLjMzLC0wLjMxIDIuNDYsMS43MyA0LjE3LDIuODcgNS4xMywzLjUzIDAuMjgsLTAuNzQgMC40OCwtMS40NSAwLjY4LC0yLjE5IC0xLjAxLC0wLjc2IC0yLjM5LC0xLjgxIC00LjM3LC0zLjQyIDAuNjUsLTEuNzIgMC40NCwtMy43MiAtMC43NSwtNS4yOCAtMS43LC0yLjIxIC00LjcyLC0yLjc3IC03LjA4LC0xLjQxIC0yLjYsLTIuMzMgLTUuNDUsLTUgLTguNDYsLTcuOTkgOS4zNSwtNS4wMyAxNiwtNC4yOSAxNiwtNC4yOSAtMS4xMSwtMS40MiAtMi4zNiwtMi42NiAtMy42OCwtMy43OCAtMy45NSwtMC42MSAtMTAuMDcsLTAuNTQgLTE3LjA3LDMuMTkgbCAtMC4wMSwtMC4wMSB2IDAgYyAtMi4zMywtMi40NCAtNC43MSwtNS4wNiAtNy4xMiwtNy44NyAtMS4xNiwwLjM3IC0yLjI5LDAuODMgLTMuMzgsMS4zOCAxLjc4LDIuOTIgNC4xOCw1Ljg3IDYuODksOC43NCAwLDAuMDEgMC4wMSwwLjAxIDAuMDIsMC4wMiAtMi4yNiwxLjU3IC00Ljc3LDMuNjggLTcuMDksNi4xMyAtMC4zLDAuMzIgLTAuNTgsMC42NCAtMC44NiwwLjk1IC0xLjM4LC0wLjI5IC0yLjg0LC0wLjIgLTQuMTk5OTk5OSwwLjI5IC0yLjMxLC00Ljk4IC0yLjEzLC04Ljk5IC0xLjc2LC0xMS4wNSAtMSwxLjA1IC0xLjk0LDIuMTUgLTIuNzUsMy4zMyAtMC42LDIuNDcgLTAuNzcsNi4wMiAxLjAxLDEwLjMgLTIuMDYsMi43IC0yLjE2LDYuNTIgLTAuMDEsOS4zNSAwLjE4LDAuMjMgMC4zNywwLjQ1IDAuNTcsMC42NSAtMC45NCwzLjIgLTEuMzYsNi4yOSAtMS40OSw4Ljk0IDAuMjQsMC4zMyAwLjI0LDAuNiAwLjQ4LDAuOTIgMS4yMywxLjU3IDIuNzYsMi44OSA0LjI1LDQuMDkgLTAuMTgsLTIuODEgMC4wMSwtNi45NSAxLjc0OTk5OTksLTExLjYxIDEuMiwwLjA5IDIuNDEsLTAuMDkgMy41NSwtMC41NyAwLjY2LDAuNTcgMS4zNCwxLjE1IDIuMDcsMS43NCAyLjUsMS45OCA1LDMuNTMgNy40Myw0Ljc0IC0wLjEyLDEuMjQgMC4xOSwyLjUyIDAuOTksMy41OSAxLjcyLDIuMjIgNC45MSwyLjY0IDcuMTMsMC45NCAwLjQ2LC0wLjM2IDAuODMsLTAuNzggMS4xMywtMS4yNCAzLjk3LDAuODggNy40NCwxLjA0IDEwLjAxLDEuMDQgMC4zOSwwIDIuMjIsLTIuNDkgMy4yNiwtNC4wMyAtMS41NiwwLjMzIC02LjIsMC45NyAtMTIuNTUsLTAuODYgLTAuMTUsLTAuNzEgLTAuNDQsLTEuNCAtMC45MSwtMi4wMiAtMS42MiwtMi4xMSAtNC41NiwtMi41NyAtNi43NiwtMS4xNSAtMi4yLC0xLjIgLTQuNTEsLTIuNyAtNi44OSwtNC41OSAtMC40OCwtMC4zOCAtMC45NSwtMC43NiAtMS4zOSwtMS4xNCAxLjQ1LC0yLjI5IDEuNjEsLTUuMjMgMC4zMiwtNy43IDAuMywtMC4yOSAwLjU4LC0wLjU5IDAuODksLTAuODggMi4zNiwtMi4yIDQuNTgsLTMuOTYgNi42NiwtNS4zOCAtMC4wOSwtMC4wOCAtMC4xNiwtMC4xNiAtMC4yNSwtMC4yNCAwLjA5LDAuMDggMC4xNiwwLjE2IDAuMjUsMC4yNCB2IDAgYyAzLjE4LDIuOTQgNi41Niw1LjczIDkuNzYsOC4yMyAtMC44NSwxLjc5IC0wLjcyLDMuOTggMC41Nyw1LjY2IHoiLz4mI3hhOzwvc3ZnPg==;" vertex="1" parent="r1PghD8o48_MAa_awycN-12">
          <mxGeometry x="139.5" y="100" width="70.5" height="70.5" as="geometry" />
        </mxCell>
        <mxCell id="r1PghD8o48_MAa_awycN-53" value="" style="image;sketch=0;aspect=fixed;html=1;points=[];align=center;fontSize=12;image=img/lib/mscae/Docker.svg;" vertex="1" parent="r1PghD8o48_MAa_awycN-12">
          <mxGeometry x="220" y="197.2" width="90" height="73.8" as="geometry" />
        </mxCell>
        <mxCell id="r1PghD8o48_MAa_awycN-1" value="" style="sketch=0;aspect=fixed;pointerEvents=1;shadow=0;dashed=0;html=1;strokeColor=none;labelPosition=center;verticalLabelPosition=bottom;verticalAlign=top;align=center;fillColor=#00188D;shape=mxgraph.mscae.enterprise.client_application" vertex="1" parent="r1PghD8o48_MAa_awycN-12">
          <mxGeometry x="20" y="40" width="90.63" height="58" as="geometry" />
        </mxCell>
        <mxCell id="r1PghD8o48_MAa_awycN-74" value="" style="shape=image;verticalLabelPosition=bottom;labelBackgroundColor=#ffffff;verticalAlign=top;aspect=fixed;imageAspect=0;image=data:image/svg+xml,PHN2ZyB4bWxuczpjYz0iaHR0cDovL2NyZWF0aXZlY29tbW9ucy5vcmcvbnMjIiB4bWxuczpkYz0iaHR0cDovL3B1cmwub3JnL2RjL2VsZW1lbnRzLzEuMS8iIHhtbG5zOmlua3NjYXBlPSJodHRwOi8vd3d3Lmlua3NjYXBlLm9yZy9uYW1lc3BhY2VzL2lua3NjYXBlIiB4bWxuczpyZGY9Imh0dHA6Ly93d3cudzMub3JnLzE5OTkvMDIvMjItcmRmLXN5bnRheC1ucyMiIHhtbG5zOnNvZGlwb2RpPSJodHRwOi8vc29kaXBvZGkuc291cmNlZm9yZ2UubmV0L0RURC9zb2RpcG9kaS0wLmR0ZCIgeG1sbnM6c3ZnPSJodHRwOi8vd3d3LnczLm9yZy8yMDAwL3N2ZyIgeG1sbnM9Imh0dHA6Ly93d3cudzMub3JnLzIwMDAvc3ZnIiB4bWxuczp4bGluaz0iaHR0cDovL3d3dy53My5vcmcvMTk5OS94bGluayIgdmVyc2lvbj0iMS4xIiBpZD0ic3ZnMTE0OTA2IiBpbmtzY2FwZTp2ZXJzaW9uPSIwLjkyLjMgKDI0MDU1NDYsIDIwMTgtMDMtMTEpIiBzb2RpcG9kaTpkb2NuYW1lPSJhbmd1bGFyLnN2ZyIgeD0iMHB4IiB5PSIwcHgiIHZpZXdCb3g9IjAgMCA1Ni44MiAxNS4zOSIgc3R5bGU9ImVuYWJsZS1iYWNrZ3JvdW5kOm5ldyAwIDAgNTYuODIgMTUuMzk7IiB4bWw6c3BhY2U9InByZXNlcnZlIj4mI3hhOzxzb2RpcG9kaTpuYW1lZHZpZXcgYm9yZGVyY29sb3I9IiM2NjY2NjYiIGJvcmRlcm9wYWNpdHk9IjEiIGZpdC1tYXJnaW4tYm90dG9tPSIwIiBmaXQtbWFyZ2luLWxlZnQ9IjAiIGZpdC1tYXJnaW4tcmlnaHQ9IjAiIGZpdC1tYXJnaW4tdG9wPSIwIiBncmlkdG9sZXJhbmNlPSIxMCIgZ3VpZGV0b2xlcmFuY2U9IjEwIiBpZD0ibmFtZWR2aWV3MTE0OTA4IiBpbmtzY2FwZTpjdXJyZW50LWxheWVyPSJzdmcxMTQ5MDYiIGlua3NjYXBlOmN4PSIzNy44ODExNTgiIGlua3NjYXBlOmN5PSIxMC4yNTk4NDYiIGlua3NjYXBlOnBhZ2VvcGFjaXR5PSIwIiBpbmtzY2FwZTpwYWdlc2hhZG93PSIyIiBpbmtzY2FwZTp3aW5kb3ctaGVpZ2h0PSIxMDE3IiBpbmtzY2FwZTp3aW5kb3ctbWF4aW1pemVkPSIxIiBpbmtzY2FwZTp3aW5kb3ctd2lkdGg9IjE5MjAiIGlua3NjYXBlOndpbmRvdy14PSItOCIgaW5rc2NhcGU6d2luZG93LXk9Ii04IiBpbmtzY2FwZTp6b29tPSIyMC44MzUyOTgiIG9iamVjdHRvbGVyYW5jZT0iMTAiIHBhZ2Vjb2xvcj0iI2ZmZmZmZiIgc2hvd2dyaWQ9ImZhbHNlIj4mI3hhOwk8L3NvZGlwb2RpOm5hbWVkdmlldz4mI3hhOzxnIGlkPSJnMTE0OTA0IiB0cmFuc2Zvcm09InRyYW5zbGF0ZSgtMy42NjIxMSwtMy42NTc5MzA3KSI+JiN4YTsJPHRpdGxlIGlkPSJ0aXRsZTExNDg3OSI+UGFnZS0xPC90aXRsZT4mI3hhOwk8ZyBpZD0iZ3JvdXAxMjEzLTEiIHRyYW5zZm9ybT0idHJhbnNsYXRlKDMuNjYyMTEsLTMuNjYyMTEpIj4mI3hhOwkJPHRpdGxlIGlkPSJ0aXRsZTExNDg4MSI+QW5ndWxhcjwvdGl0bGU+JiN4YTsJCTxnIGlkPSJzaGFwZTEyMTQtMiIgdHJhbnNmb3JtPSJ0cmFuc2xhdGUoMTYuNzEzNiwtMy45MTc1OSkiPiYjeGE7CQkJPHRpdGxlIGlkPSJ0aXRsZTExNDg4MyI+U2hlZXQuMTIxNDwvdGl0bGU+JiN4YTsJCQk8cGF0aCBpZD0icGF0aDExNDg4NSIgaW5rc2NhcGU6Y29ubmVjdG9yLWN1cnZhdHVyZT0iMCIgc3R5bGU9ImZpbGw6I0I1MkUzMTsiIGQ9Ik0wLDIyLjY1di02Ljk5aDAuOWw0LjI3LDUuNjN2LTUuNjNoMC44NnY2Ljk5ICAgICBoLTAuOWwtNC4yOC01LjY4djUuNjhIMHogTTEyLjk4LDIyLjM3Yy0wLjU2LDAuMjEtMS4xNywwLjMyLTEuODIsMC4zMmMtMi41MywwLTMuNzktMS4yLTMuNzktMy42NGMwLTIuMjksMS4yMi0zLjQ1LDMuNjYtMy40NSAgICAgYzAuNywwLDEuMzYsMC4xLDEuOTUsMC4yOXYwLjc4Yy0wLjU5LTAuMjMtMS4yMi0wLjM1LTEuODUtMC4zNWMtMS45MSwwLTIuODYsMC45MS0yLjg2LDIuNzFjMCwxLjk0LDAuOTQsMi45MSwyLjgyLDIuOTEgICAgIGMwLjMsMCwwLjYzLTAuMDQsMS0wLjEydi0yLjM0aDAuODlWMjIuMzd6IE0xNC40MywxOS45NXYtNC4yOWgwLjl2NC4yOWMwLDEuMzUsMC42NiwyLjAyLDIuMDEsMi4wMmMxLjMzLDAsMi0wLjY3LDItMi4wMnYtNC4yOSAgICAgaDAuOXY0LjI5YzAsMS44My0wLjk2LDIuNzYtMi45LDIuNzZDMTUuMzksMjIuNzEsMTQuNDMsMjEuNzgsMTQuNDMsMTkuOTV6IE0yMi43NSwxNS42NnY2LjI2aDMuNjZ2MC43M2gtNC41NnYtNi45OUwyMi43NSwxNS42NiAgICAgeiBNMjcuNzEsMjIuNjVoLTAuOTRsMy40Ny03LjkxbDMuNDgsNy45MWgtMWwtMC45LTIuMmgtMi4zMWwwLjI0LTAuNzNoMS43N2wtMS4zMS0zLjE2TDI3LjcxLDIyLjY1eiBNMzQuNjgsMjIuNjV2LTYuOTloMi45OSAgICAgYzEuMzMsMCwxLjk5LDAuNTUsMS45OSwxLjY3YzAsMC45MS0wLjY1LDEuNTktMS45NSwyLjAybDIuNCwzLjNoLTEuMTlsLTIuMjItMy4xNHYtMC41OWMxLjMzLTAuMjEsMi4wMS0wLjcyLDIuMDEtMS41NCAgICAgYzAtMC42NC0wLjM3LTAuOTctMS4xMS0wLjk3aC0ydjYuMjRMMzQuNjgsMjIuNjV6Ii8+JiN4YTsJCTwvZz4mI3hhOwkJPGcgaWQ9InNoYXBlMTIxNS00Ij4mI3hhOwkJCTx0aXRsZSBpZD0idGl0bGUxMTQ4ODgiPlNoZWV0LjEyMTU8L3RpdGxlPiYjeGE7CQkJPHBhdGggaWQ9InBhdGgxMTQ4OTAiIGlua3NjYXBlOmNvbm5lY3Rvci1jdXJ2YXR1cmU9IjAiIHN0eWxlPSJmaWxsOiNFMjMyMzc7IiBkPSJNMCw5Ljg4bDcuMTYtMi41Nmw3LjM1LDIuNTFsLTEuMTksOS40NyAgICAgbC02LjE2LDMuNDFMMS4xLDE5LjM0TDAsOS44OHoiLz4mI3hhOwkJPC9nPiYjeGE7CQk8ZyBpZD0ic2hhcGUxMjE2LTYiIHRyYW5zZm9ybT0idHJhbnNsYXRlKDcuMTU4MjEpIj4mI3hhOwkJCTx0aXRsZSBpZD0idGl0bGUxMTQ4OTMiPlNoZWV0LjEyMTY8L3RpdGxlPiYjeGE7CQkJPHBhdGggaWQ9InBhdGgxMTQ4OTUiIGlua3NjYXBlOmNvbm5lY3Rvci1jdXJ2YXR1cmU9IjAiIHN0eWxlPSJmaWxsOiNCNTJFMzE7IiBkPSJNNy4zNSw5LjgzTDAsNy4zMnYxNS4zOWw2LjE2LTMuNDFMNy4zNSw5LjgzeiIvPiYjeGE7CQk8L2c+JiN4YTsJCTxnIGlkPSJzaGFwZTEyMTctOCIgdHJhbnNmb3JtPSJ0cmFuc2xhdGUoMi43MDc5MSwtMy42NDAxNCkiPiYjeGE7CQkJPHRpdGxlIGlkPSJ0aXRsZTExNDg5OCI+U2hlZXQuMTIxNzwvdGl0bGU+JiN4YTsJCQk8cGF0aCBpZD0icGF0aDExNDkwMCIgaW5rc2NhcGU6Y29ubmVjdG9yLWN1cnZhdHVyZT0iMCIgc3R5bGU9ImZpbGw6I0ZGRkZGRjsiIGQ9Ik00LjQ2LDEyLjc2TDAsMjIuNjhsMS42Ni0wLjAzbDAuOS0yLjI0aDMuOTkgICAgIGwwLjk3LDIuMjZsMS41OSwwLjA0TDQuNDYsMTIuNzZ6IE00LjQ3LDE1Ljk1bDEuNTEsMy4xNUgzLjE1TDQuNDcsMTUuOTV6Ii8+JiN4YTsJCTwvZz4mI3hhOwk8L2c+JiN4YTs8L2c+JiN4YTs8L3N2Zz4=;" vertex="1" parent="r1PghD8o48_MAa_awycN-12">
          <mxGeometry x="10" y="220" width="148.2" height="39" as="geometry" />
        </mxCell>
        <mxCell id="r1PghD8o48_MAa_awycN-68" style="edgeStyle=orthogonalEdgeStyle;rounded=0;orthogonalLoop=1;jettySize=auto;html=1;" edge="1" parent="1" source="r1PghD8o48_MAa_awycN-67" target="r1PghD8o48_MAa_awycN-65">
          <mxGeometry relative="1" as="geometry">
            <mxPoint x="765" y="1010" as="targetPoint" />
            <Array as="points">
              <mxPoint x="1120" y="1010" />
              <mxPoint x="1120" y="1010" />
            </Array>
          </mxGeometry>
        </mxCell>
        <mxCell id="r1PghD8o48_MAa_awycN-67" value="AZURE LOAD BALANCE" style="verticalLabelPosition=bottom;html=1;verticalAlign=top;align=center;strokeColor=none;fillColor=#00BEF2;shape=mxgraph.azure.azure_load_balancer;" vertex="1" parent="1">
          <mxGeometry x="1025" y="694" width="190" height="133" as="geometry" />
        </mxCell>
        <mxCell id="r1PghD8o48_MAa_awycN-75" value="" style="swimlane;startSize=0;" vertex="1" parent="1">
          <mxGeometry x="2080" y="1080" width="950" height="520" as="geometry" />
        </mxCell>
        <mxCell id="r1PghD8o48_MAa_awycN-100" value="&lt;b&gt;&lt;font style=&quot;font-size: 30px;&quot;&gt;AUTHENTICATION AND AUTHORIZATION&lt;/font&gt;&lt;/b&gt;" style="text;html=1;strokeColor=none;fillColor=none;align=center;verticalAlign=middle;whiteSpace=wrap;rounded=0;" vertex="1" parent="r1PghD8o48_MAa_awycN-75">
          <mxGeometry x="60" y="20" width="830" height="110" as="geometry" />
        </mxCell>
        <mxCell id="r1PghD8o48_MAa_awycN-11" value="SIERRA SECURITY " style="swimlane;" vertex="1" parent="r1PghD8o48_MAa_awycN-75">
          <mxGeometry x="430" y="133" width="400" height="280" as="geometry" />
        </mxCell>
        <mxCell id="r1PghD8o48_MAa_awycN-2" value="" style="sketch=0;aspect=fixed;pointerEvents=1;shadow=0;dashed=0;html=1;strokeColor=none;labelPosition=center;verticalLabelPosition=bottom;verticalAlign=top;align=center;fillColor=#00188D;shape=mxgraph.mscae.enterprise.database_generic" vertex="1" parent="r1PghD8o48_MAa_awycN-11">
          <mxGeometry x="230" y="190" width="37" height="50" as="geometry" />
        </mxCell>
        <mxCell id="r1PghD8o48_MAa_awycN-4" value="SIERRA &lt;br&gt;SECURITY API" style="sketch=0;html=1;dashed=0;whitespace=wrap;fillColor=#2875E2;strokeColor=#ffffff;points=[[0.005,0.63,0],[0.1,0.2,0],[0.9,0.2,0],[0.5,0,0],[0.995,0.63,0],[0.72,0.99,0],[0.5,1,0],[0.28,0.99,0]];verticalLabelPosition=bottom;align=center;verticalAlign=top;shape=mxgraph.kubernetes.icon;prIcon=api" vertex="1" parent="r1PghD8o48_MAa_awycN-11">
          <mxGeometry x="160" y="60" width="50" height="48" as="geometry" />
        </mxCell>
        <mxCell id="r1PghD8o48_MAa_awycN-9" style="edgeStyle=orthogonalEdgeStyle;rounded=0;orthogonalLoop=1;jettySize=auto;html=1;entryX=0.5;entryY=1;entryDx=0;entryDy=0;entryPerimeter=0;" edge="1" parent="r1PghD8o48_MAa_awycN-11" source="r1PghD8o48_MAa_awycN-2" target="r1PghD8o48_MAa_awycN-4">
          <mxGeometry relative="1" as="geometry" />
        </mxCell>
        <mxCell id="r1PghD8o48_MAa_awycN-5" value="SIERRA SECURITY WEB" style="image;aspect=fixed;html=1;points=[];align=center;fontSize=12;image=img/lib/azure2/app_services/App_Services.svg;" vertex="1" parent="r1PghD8o48_MAa_awycN-11">
          <mxGeometry x="290" y="60" width="50" height="50" as="geometry" />
        </mxCell>
        <mxCell id="r1PghD8o48_MAa_awycN-10" style="edgeStyle=orthogonalEdgeStyle;rounded=0;orthogonalLoop=1;jettySize=auto;html=1;" edge="1" parent="r1PghD8o48_MAa_awycN-11" source="r1PghD8o48_MAa_awycN-2" target="r1PghD8o48_MAa_awycN-5">
          <mxGeometry relative="1" as="geometry" />
        </mxCell>
        <mxCell id="r1PghD8o48_MAa_awycN-57" value="" style="image;sketch=0;aspect=fixed;html=1;points=[];align=center;fontSize=12;image=img/lib/mscae/Docker.svg;" vertex="1" parent="r1PghD8o48_MAa_awycN-11">
          <mxGeometry x="340" y="230" width="50" height="41" as="geometry" />
        </mxCell>
        <mxCell id="r1PghD8o48_MAa_awycN-101" style="edgeStyle=orthogonalEdgeStyle;rounded=0;orthogonalLoop=1;jettySize=auto;html=1;entryX=0;entryY=0.5;entryDx=0;entryDy=0;" edge="1" parent="r1PghD8o48_MAa_awycN-75" source="r1PghD8o48_MAa_awycN-51" target="r1PghD8o48_MAa_awycN-11">
          <mxGeometry relative="1" as="geometry" />
        </mxCell>
        <mxCell id="r1PghD8o48_MAa_awycN-51" value="AZURE AD" style="shape=image;verticalLabelPosition=bottom;labelBackgroundColor=#ffffff;verticalAlign=top;aspect=fixed;imageAspect=0;image=data:image/svg+xml,PHN2ZyB4bWxuczpkYz0iaHR0cDovL3B1cmwub3JnL2RjL2VsZW1lbnRzLzEuMS8iIHhtbG5zOmNjPSJodHRwOi8vY3JlYXRpdmVjb21tb25zLm9yZy9ucyMiIHhtbG5zOnJkZj0iaHR0cDovL3d3dy53My5vcmcvMTk5OS8wMi8yMi1yZGYtc3ludGF4LW5zIyIgeG1sbnM6c3ZnPSJodHRwOi8vd3d3LnczLm9yZy8yMDAwL3N2ZyIgeG1sbnM9Imh0dHA6Ly93d3cudzMub3JnLzIwMDAvc3ZnIiB4bWxuczpzb2RpcG9kaT0iaHR0cDovL3NvZGlwb2RpLnNvdXJjZWZvcmdlLm5ldC9EVEQvc29kaXBvZGktMC5kdGQiIHhtbG5zOmlua3NjYXBlPSJodHRwOi8vd3d3Lmlua3NjYXBlLm9yZy9uYW1lc3BhY2VzL2lua3NjYXBlIiB2ZXJzaW9uPSIxLjEiIGlkPSJzdmc1MDMyOSIgaW5rc2NhcGU6dmVyc2lvbj0iMC45Mi4zICgyNDA1NTQ2LCAyMDE4LTAzLTExKSIgc29kaXBvZGk6ZG9jbmFtZT0iYXp1cmUuc3ZnIiB4PSIwcHgiIHk9IjBweCIgdmlld0JveD0iMCAwIDYyLjc2IDQ4LjQ4IiBzdHlsZT0iZW5hYmxlLWJhY2tncm91bmQ6bmV3IDAgMCA2Mi43NiA0OC40ODsiIHhtbDpzcGFjZT0icHJlc2VydmUiPjxtZXRhZGF0YSBpZD0ibWV0YWRhdGExNjgwNyI+PHJkZjpSREY+PGNjOldvcmsgcmRmOmFib3V0PSIiPjxkYzpmb3JtYXQ+aW1hZ2Uvc3ZnK3htbDwvZGM6Zm9ybWF0PjxkYzp0eXBlIHJkZjpyZXNvdXJjZT0iaHR0cDovL3B1cmwub3JnL2RjL2RjbWl0eXBlL1N0aWxsSW1hZ2UiLz48ZGM6dGl0bGUvPjwvY2M6V29yaz48L3JkZjpSREY+PC9tZXRhZGF0YT48ZGVmcyBpZD0iZGVmczE2ODA1Ii8+JiN4YTs8c29kaXBvZGk6bmFtZWR2aWV3IGJvcmRlcmNvbG9yPSIjNjY2NjY2IiBib3JkZXJvcGFjaXR5PSIxIiBmaXQtbWFyZ2luLWJvdHRvbT0iMCIgZml0LW1hcmdpbi1sZWZ0PSIwIiBmaXQtbWFyZ2luLXJpZ2h0PSIwIiBmaXQtbWFyZ2luLXRvcD0iMCIgZ3JpZHRvbGVyYW5jZT0iMTAiIGd1aWRldG9sZXJhbmNlPSIxMCIgaWQ9Im5hbWVkdmlldzUwMzMxIiBpbmtzY2FwZTpjdXJyZW50LWxheWVyPSJzdmc1MDMyOSIgaW5rc2NhcGU6Y3g9IjQ5LjM2MTQ4NiIgaW5rc2NhcGU6Y3k9IjEyLjA3MjQ5NyIgaW5rc2NhcGU6cGFnZW9wYWNpdHk9IjAiIGlua3NjYXBlOnBhZ2VzaGFkb3c9IjIiIGlua3NjYXBlOndpbmRvdy1oZWlnaHQ9IjEwMTciIGlua3NjYXBlOndpbmRvdy1tYXhpbWl6ZWQ9IjEiIGlua3NjYXBlOndpbmRvdy13aWR0aD0iMTkyMCIgaW5rc2NhcGU6d2luZG93LXg9Ii04IiBpbmtzY2FwZTp3aW5kb3cteT0iLTgiIGlua3NjYXBlOnpvb209IjUuOTY3MzU3NyIgb2JqZWN0dG9sZXJhbmNlPSIxMCIgcGFnZWNvbG9yPSIjZmZmZmZmIiBzaG93Z3JpZD0iZmFsc2UiPiYjeGE7CTwvc29kaXBvZGk6bmFtZWR2aWV3PiYjeGE7JiN4YTs8cGF0aCBpZD0icGF0aDUwMzI0IiBpbmtzY2FwZTpjb25uZWN0b3ItY3VydmF0dXJlPSIwIiBzdHlsZT0iZmlsbDojMjA3NUI4OyIgZD0iTTE1LjY4LDQ4LjM2YzAuMDctMC4wNyw2LjQtMS4yMywxNC4wNi0yLjU3ICBjNy42NS0xLjM1LDEzLjk3LTIuNSwxNC4wMy0yLjU2YzAuMTItMC4xMS0wLjc1LTEuMTctMTAuMjItMTIuNDZjLTIuNTItMi45OS00LjYzLTUuNTYtNC43LTUuN2MtMC4wOS0wLjE5LDAuODktMy4wNCwzLjczLTEwLjgzICBjMi4xMS01LjgxLDMuODctMTAuNjUsMy45MS0xMC43NWMwLjAzLTAuMDksMC4xMy0wLjE3LDAuMjItMC4xN2MwLjE5LDAsMjYuMTQsNDQuOTEsMjYuMDUsNDUuMDZjLTAuMDQsMC4wNi0xMC42OCwwLjEtMjMuNjQsMC4xICBDMjUuMjEsNDguNDgsMTUuNiw0OC40MywxNS42OCw0OC4zNnogTTAsNDMuMDFjLTAuMDUtMC4xMywwLjU0LTEuMjksMS40NS0yLjg4YzAuODQtMS40Niw0LjQyLTcuNjYsNy45NS0xMy43N2w2LjQxLTExLjFsOS4wOC03LjYzICBDMjkuODgsMy40NCwzNC4wNCwwLDM0LjEzLDBjMC4xLDAsMC4xMywwLjA5LDAuMDgsMC4yNEMzMy43NCwxLjQ4LDE0LjMsNDIuOTIsMTQuMTMsNDMuMDVjLTAuMTksMC4xMy0xLjg0LDAuMTctNy4xNSwwLjE3ICBDMC45MSw0My4yMiwwLjA3LDQzLjE5LDAsNDMuMDF6Ii8+JiN4YTs8L3N2Zz4=;" vertex="1" parent="r1PghD8o48_MAa_awycN-75">
          <mxGeometry x="50" y="207" width="170.63" height="130" as="geometry" />
        </mxCell>
        <mxCell id="r1PghD8o48_MAa_awycN-103" style="edgeStyle=orthogonalEdgeStyle;rounded=0;orthogonalLoop=1;jettySize=auto;html=1;" edge="1" parent="1" source="r1PghD8o48_MAa_awycN-65">
          <mxGeometry relative="1" as="geometry">
            <mxPoint x="2070" y="1330" as="targetPoint" />
          </mxGeometry>
        </mxCell>
        <mxCell id="r1PghD8o48_MAa_awycN-65" value="" style="swimlane;startSize=0;" vertex="1" parent="1">
          <mxGeometry x="340" y="1070" width="1520" height="520" as="geometry" />
        </mxCell>
        <mxCell id="r1PghD8o48_MAa_awycN-18" value="GIFT CARD STOCK" style="swimlane;startSize=23;" vertex="1" parent="r1PghD8o48_MAa_awycN-65">
          <mxGeometry x="1150" y="150" width="330" height="290" as="geometry" />
        </mxCell>
        <mxCell id="r1PghD8o48_MAa_awycN-19" value="" style="sketch=0;aspect=fixed;pointerEvents=1;shadow=0;dashed=0;html=1;strokeColor=none;labelPosition=center;verticalLabelPosition=bottom;verticalAlign=top;align=center;fillColor=#00188D;shape=mxgraph.mscae.enterprise.database_generic" vertex="1" parent="r1PghD8o48_MAa_awycN-18">
          <mxGeometry x="210" y="186" width="37" height="50" as="geometry" />
        </mxCell>
        <mxCell id="r1PghD8o48_MAa_awycN-20" value="SIERRA &lt;br&gt;SECURITY API" style="sketch=0;html=1;dashed=0;whitespace=wrap;fillColor=#2875E2;strokeColor=#ffffff;points=[[0.005,0.63,0],[0.1,0.2,0],[0.9,0.2,0],[0.5,0,0],[0.995,0.63,0],[0.72,0.99,0],[0.5,1,0],[0.28,0.99,0]];verticalLabelPosition=bottom;align=center;verticalAlign=top;shape=mxgraph.kubernetes.icon;prIcon=api" vertex="1" parent="r1PghD8o48_MAa_awycN-18">
          <mxGeometry x="123.5" y="36" width="50" height="48" as="geometry" />
        </mxCell>
        <mxCell id="r1PghD8o48_MAa_awycN-21" style="edgeStyle=orthogonalEdgeStyle;rounded=0;orthogonalLoop=1;jettySize=auto;html=1;entryX=0.5;entryY=1;entryDx=0;entryDy=0;entryPerimeter=0;" edge="1" parent="r1PghD8o48_MAa_awycN-18" source="r1PghD8o48_MAa_awycN-19" target="r1PghD8o48_MAa_awycN-20">
          <mxGeometry relative="1" as="geometry" />
        </mxCell>
        <mxCell id="r1PghD8o48_MAa_awycN-32" style="edgeStyle=orthogonalEdgeStyle;rounded=0;orthogonalLoop=1;jettySize=auto;html=1;" edge="1" parent="r1PghD8o48_MAa_awycN-18" source="r1PghD8o48_MAa_awycN-31">
          <mxGeometry relative="1" as="geometry">
            <mxPoint x="149.99999999999977" y="90" as="targetPoint" />
          </mxGeometry>
        </mxCell>
        <mxCell id="r1PghD8o48_MAa_awycN-31" value="" style="shape=image;verticalLabelPosition=bottom;labelBackgroundColor=#ffffff;verticalAlign=top;aspect=fixed;imageAspect=0;image=data:image/svg+xml,PHN2ZyB4bWxuczpjYz0iaHR0cDovL2NyZWF0aXZlY29tbW9ucy5vcmcvbnMjIiB4bWxuczpkYz0iaHR0cDovL3B1cmwub3JnL2RjL2VsZW1lbnRzLzEuMS8iIHhtbG5zOmlua3NjYXBlPSJodHRwOi8vd3d3Lmlua3NjYXBlLm9yZy9uYW1lc3BhY2VzL2lua3NjYXBlIiB4bWxuczpyZGY9Imh0dHA6Ly93d3cudzMub3JnLzE5OTkvMDIvMjItcmRmLXN5bnRheC1ucyMiIHhtbG5zOnNvZGlwb2RpPSJodHRwOi8vc29kaXBvZGkuc291cmNlZm9yZ2UubmV0L0RURC9zb2RpcG9kaS0wLmR0ZCIgeG1sbnM6c3ZnPSJodHRwOi8vd3d3LnczLm9yZy8yMDAwL3N2ZyIgeG1sbnM9Imh0dHA6Ly93d3cudzMub3JnLzIwMDAvc3ZnIiB4bWxuczp4bGluaz0iaHR0cDovL3d3dy53My5vcmcvMTk5OS94bGluayIgdmVyc2lvbj0iMS4xIiBpZD0ic3ZnOTcyNDYiIGlua3NjYXBlOnZlcnNpb249IjAuOTIuMyAoMjQwNTU0NiwgMjAxOC0wMy0xMSkiIHNvZGlwb2RpOmRvY25hbWU9ImNvc21vX2RiLnN2ZyIgeD0iMHB4IiB5PSIwcHgiIHZpZXdCb3g9IjAgMCA1Ni4yIDUxLjc0IiBzdHlsZT0iZW5hYmxlLWJhY2tncm91bmQ6bmV3IDAgMCA1Ni4yIDUxLjc0OyIgeG1sOnNwYWNlPSJwcmVzZXJ2ZSI+JiN4YTs8c29kaXBvZGk6bmFtZWR2aWV3IGJvcmRlcmNvbG9yPSIjNjY2NjY2IiBib3JkZXJvcGFjaXR5PSIxIiBmaXQtbWFyZ2luLWJvdHRvbT0iMCIgZml0LW1hcmdpbi1sZWZ0PSIwIiBmaXQtbWFyZ2luLXJpZ2h0PSIwIiBmaXQtbWFyZ2luLXRvcD0iMCIgZ3JpZHRvbGVyYW5jZT0iMTAiIGd1aWRldG9sZXJhbmNlPSIxMCIgaWQ9Im5hbWVkdmlldzk3MjQ4IiBpbmtzY2FwZTpjdXJyZW50LWxheWVyPSJzdmc5NzI0NiIgaW5rc2NhcGU6Y3g9IjM3LjY0MjY5MyIgaW5rc2NhcGU6Y3k9IjM0LjQ5MzIyNiIgaW5rc2NhcGU6cGFnZW9wYWNpdHk9IjAiIGlua3NjYXBlOnBhZ2VzaGFkb3c9IjIiIGlua3NjYXBlOndpbmRvdy1oZWlnaHQ9IjEwMTciIGlua3NjYXBlOndpbmRvdy1tYXhpbWl6ZWQ9IjEiIGlua3NjYXBlOndpbmRvdy13aWR0aD0iMTkyMCIgaW5rc2NhcGU6d2luZG93LXg9Ii04IiBpbmtzY2FwZTp3aW5kb3cteT0iLTgiIGlua3NjYXBlOnpvb209IjEyLjIxMzU1MyIgb2JqZWN0dG9sZXJhbmNlPSIxMCIgcGFnZWNvbG9yPSIjZmZmZmZmIiBzaG93Z3JpZD0iZmFsc2UiPiYjeGE7CTwvc29kaXBvZGk6bmFtZWR2aWV3PiYjeGE7PGcgaWQ9Imc5NzI0NCIgdHJhbnNmb3JtPSJ0cmFuc2xhdGUoLTAuNzg3NDAxNTYsLTAuNzU0NSkiPiYjeGE7CTx0aXRsZSBpZD0idGl0bGU5NzIwNCI+UGFnZS0xPC90aXRsZT4mI3hhOwk8ZyBpZD0iZ3JvdXAzNjQxLTEiIHRyYW5zZm9ybT0idHJhbnNsYXRlKDAsLTAuNzUpIj4mI3hhOwkJPHRpdGxlIGlkPSJ0aXRsZTk3MjA2Ij5Db3NtbyBEQi42Mjg8L3RpdGxlPiYjeGE7CQk8ZyBpZD0ic2hhcGUzNjQyLTIiIHRyYW5zZm9ybT0idHJhbnNsYXRlKDguNjYwODMsLTMuODI0MjYpIj4mI3hhOwkJCTx0aXRsZSBpZD0idGl0bGU5NzIwOCI+U2hlZXQuMzY0MjwvdGl0bGU+JiN4YTsJCQk8cGF0aCBpZD0icGF0aDk3MjEwIiBpbmtzY2FwZTpjb25uZWN0b3ItY3VydmF0dXJlPSIwIiBzdHlsZT0iZmlsbDojNTlCNEQ5OyIgZD0iTTM4LjU4LDI4LjQ5YzIuMzYsMTAuMDItMy43MSwyMC4wMy0xMy43MiwyMi4zOSAgICAgUzQuOTUsNDcuMjgsMi40NywzNy4yN0MwLDI3LjI2LDYuMTksMTcuMjUsMTYuMiwxNC44OGwwLDBDMjYuMDksMTIuNDEsMzYuMTEsMTguNDgsMzguNTgsMjguNDlMMzguNTgsMjguNDl6Ii8+JiN4YTsJCTwvZz4mI3hhOwkJPGcgaWQ9InNoYXBlMzY0My00IiB0cmFuc2Zvcm09InRyYW5zbGF0ZSg5Ljg5ODEsLTExLjgxMDIpIj4mI3hhOwkJCTx0aXRsZSBpZD0idGl0bGU5NzIxMyI+U2hlZXQuMzY0MzwvdGl0bGU+JiN4YTsJCQk8cGF0aCBpZD0icGF0aDk3MjE1IiBpbmtzY2FwZTpjb25uZWN0b3ItY3VydmF0dXJlPSIwIiBzdHlsZT0iZmlsbDojRkZGRkZGO2ZpbGwtb3BhY2l0eTowLjU7IiBkPSJNMTYuNjUsNDguMjkgICAgIGMwLTIuNy0yLjI1LTQuOTUtNC45NS00Ljk1bDAsMGgtMC43OWMwLjY4LTIuNTktMS4wMS01LjI4LTMuNi01Ljk2Yy0wLjM0LTAuMTEtMC43OS0wLjExLTEuMjQtMC4xMUgxLjEyICAgICBDMCw0MywxLjY5LDQ4Ljg1LDUuNjIsNTMuMTNoNi4xOUMxNC41MSw1My4yNCwxNi42NSw1MS4xLDE2LjY1LDQ4LjI5TDE2LjY1LDQ4LjI5eiIvPiYjeGE7CQk8L2c+JiN4YTsJCTxnIGlkPSJzaGFwZTM2NDQtNiIgdHJhbnNmb3JtPSJ0cmFuc2xhdGUoMjUuNTMyNiwtMjUuODcpIj4mI3hhOwkJCTx0aXRsZSBpZD0idGl0bGU5NzIxOCI+U2hlZXQuMzY0NDwvdGl0bGU+JiN4YTsJCQk8cGF0aCBpZD0icGF0aDk3MjIwIiBpbmtzY2FwZTpjb25uZWN0b3ItY3VydmF0dXJlPSIwIiBzdHlsZT0iZmlsbDojRkZGRkZGO2ZpbGwtb3BhY2l0eTowLjU7IiBkPSJNNy4yLDQxLjk5ICAgICBjMCwwLjM0LDAsMC41NiwwLjExLDAuOUg1LjE3QzIuMzYsNDIuODksMCw0NS4xNCwwLDQ4LjA3YzAsMi45MiwyLjI1LDUuMTcsNS4xNyw1LjE3aDE2Ljk5Yy0wLjU2LTYuMy00LjE2LTExLjctOS41Ni0xNC42MiAgICAgaC0yLjAzQzguNjYsMzguNjIsNy4yLDQwLjA4LDcuMiw0MS45OXoiLz4mI3hhOwkJPC9nPiYjeGE7CQk8ZyBpZD0ic2hhcGUzNjQ1LTgiIHRyYW5zZm9ybT0idHJhbnNsYXRlKDMwLjQ4MTYsLTcuOTg1OTYpIj4mI3hhOwkJCTx0aXRsZSBpZD0idGl0bGU5NzIyMyI+U2hlZXQuMzY0NTwvdGl0bGU+JiN4YTsJCQk8cGF0aCBpZD0icGF0aDk3MjI1IiBpbmtzY2FwZTpjb25uZWN0b3ItY3VydmF0dXJlPSIwIiBzdHlsZT0iZmlsbDojRkZGRkZGO2ZpbGwtb3BhY2l0eTowLjU7IiBkPSJNMTcuMjEsMzguOTZINy4wOSAgICAgYy0yLjI1LDAtNC4xNywxLjc5LTQuMTcsNC4xNmMwLDAuNjcsMC4yMywxLjM1LDAuNDUsMi4wMmMtMi4yNSwwLjY4LTMuMzcsMy4wNC0yLjcsNS4xOGMwLjU3LDEuOCwyLjE0LDIuOTIsNC4wNSwyLjkyaDIuNyAgICAgQzEyLjgyLDUwLjQzLDE2LjUzLDQ1LjAzLDE3LjIxLDM4Ljk2eiIvPiYjeGE7CQk8L2c+JiN4YTsJCTxnIGlkPSJzaGFwZTM2NDYtMTAiIHRyYW5zZm9ybT0idHJhbnNsYXRlKDAuNzg3MzQ5LC0zNi41NTU1KSI+JiN4YTsJCQk8dGl0bGUgaWQ9InRpdGxlOTcyMjgiPlNoZWV0LjM2NDY8L3RpdGxlPiYjeGE7CQkJPHBhdGggaWQ9InBhdGg5NzIzMCIgaW5rc2NhcGU6Y29ubmVjdG9yLWN1cnZhdHVyZT0iMCIgc3R5bGU9ImZpbGw6I0I4RDQzMjsiIGQ9Ik03LjY1LDUzLjI0Yy0wLjM0LDAtMC41Ni0wLjIyLTAuNTYtMC41NiAgICAgYzAtMy42LTIuOTMtNi41My02LjUzLTYuNTNDMC4yMiw0Ni4yNywwLDQ1LjkzLDAsNDUuN2MwLTAuMjIsMC4yMi0wLjU2LDAuNTYtMC41NmMzLjYsMCw2LjUzLTIuOTIsNi41My02LjUyICAgICBjMC0wLjM0LDAuMjItMC41NiwwLjU2LTAuNTZzMC41NiwwLjIyLDAuNTYsMC41NmMwLDMuNiwyLjkzLDYuNTIsNi41Miw2LjUyYzAuMzQsMCwwLjU3LDAuMjMsMC41NywwLjU2ICAgICBjMCwwLjM0LTAuMjMsMC41Ny0wLjU3LDAuNTdjLTMuNTksMC02LjUyLDIuOTItNi41Miw2LjUyQzguMjEsNTMuMDIsNy45OSw1My4yNCw3LjY1LDUzLjI0eiIvPiYjeGE7CQk8L2c+JiN4YTsJCTxnIGlkPSJzaGFwZTM2NDctMTIiIHRyYW5zZm9ybT0idHJhbnNsYXRlKDQzLjg2NjYpIj4mI3hhOwkJCTx0aXRsZSBpZD0idGl0bGU5NzIzMyI+U2hlZXQuMzY0NzwvdGl0bGU+JiN4YTsJCQk8cGF0aCBpZD0icGF0aDk3MjM1IiBpbmtzY2FwZTpjb25uZWN0b3ItY3VydmF0dXJlPSIwIiBzdHlsZT0iZmlsbDojMjZCQ0VFOyIgZD0iTTQuNjEsNTMuMjRjLTAuMjIsMC0wLjM0LTAuMTEtMC4zNC0wLjM0ICAgICBjMC0yLjEzLTEuOC0zLjgyLTMuOTMtMy44MkMwLjExLDQ5LjA4LDAsNDguOTcsMCw0OC43NGMwLTAuMjIsMC4xMS0wLjM0LDAuMzQtMC4zNGwwLDBjMi4xMywwLDMuODItMS42OCwzLjkzLTMuODIgICAgIGMwLTAuMjMsMC4xMi0wLjM0LDAuMzQtMC4zNGMwLjIzLDAsMC4zNCwwLjExLDAuMzQsMC4zNGMwLDIuMTQsMS44LDMuODIsMy45NCwzLjgyYzAuMjIsMCwwLjMzLDAuMTIsMC4zMywwLjM0ICAgICBjMCwwLjIzLTAuMTEsMC4zNC0wLjMzLDAuMzRsMCwwYy0yLjE0LDAtMy44MywxLjY5LTMuOTQsMy44MkM0Ljk1LDUzLjAyLDQuODQsNTMuMjQsNC42MSw1My4yNEw0LjYxLDUzLjI0eiIvPiYjeGE7CQk8L2c+JiN4YTsJCTxnIGlkPSJzaGFwZTM2NDgtMTQiIHRyYW5zZm9ybT0idHJhbnNsYXRlKDAsLTUuMDYxNTMpIj4mI3hhOwkJCTx0aXRsZSBpZD0idGl0bGU5NzIzOCI+U2hlZXQuMzY0ODwvdGl0bGU+JiN4YTsJCQk8cGF0aCBpZD0icGF0aDk3MjQwIiBpbmtzY2FwZTpjb25uZWN0b3ItY3VydmF0dXJlPSIwIiBzdHlsZT0iZmlsbDojMEYwRjBGOyIgZD0iTTU2LjI0LDE3LjQ3Yy0xLjgtMi45Mi02LjE5LTMuNi0xMi45NC0xLjkxICAgICBjLTIuMDIsMC41Ni00LjE2LDEuMTItNi4wNywxLjkxYzEuMjQsMC42OCwyLjQ3LDEuMzUsMy42LDIuMjVjMS4xMi0wLjM0LDIuMjUtMC42NywzLjI2LTEuMDFjMS44LTAuNDUsMy42LTAuNjgsNS40LTAuNzkgICAgIGMyLjE0LDAsMy4zNywwLjU2LDMuODIsMS4yNGMwLjY4LDEuMTIsMCwzLjk0LTMuODIsOC40M2MtMC42NywwLjc5LTEuNDYsMS41OC0yLjI1LDIuMzdjLTQuMjcsNC4wNS04Ljg4LDcuNjUtMTMuOTUsMTAuNjggICAgIGMtNS4wNiwzLjE1LTEwLjM0LDUuNzQtMTUuOTcsNy41NGMtNi43NSwyLjE0LTExLjM2LDIuMTQtMTIuMzcsMC40NWMtMS4wMS0xLjY5LDEuMDEtNS44NSw2LjA3LTEwLjggICAgIGMtMC4zMy0xLjQ2LTAuNDUtMi45Mi0wLjQ1LTQuMjdDMi41OSw0MC43NSwwLDQ3LjA1LDIuMDIsNTAuNDNjMS4xMywxLjgsMy40OSwyLjgxLDYuODcsMi44MWM0LjA1LTAuMjIsOC4wOS0xLjAxLDExLjkyLTIuNTkgICAgIGM0Ljk1LTEuOTEsOS42Ny00LjI3LDE0LjA2LTcuMDhjNC41LTIuNyw4Ljc3LTUuODUsMTIuNzEtOS40NWMxLjU3LTEuMzUsMy4wNC0yLjgxLDQuMzktNC4zOSAgICAgQzU2LjU4LDI0LjU2LDU4LjA0LDIwLjI4LDU2LjI0LDE3LjQ3eiIvPiYjeGE7CQk8L2c+JiN4YTsJPC9nPiYjeGE7PC9nPiYjeGE7PC9zdmc+;" vertex="1" parent="r1PghD8o48_MAa_awycN-18">
          <mxGeometry x="40" y="186" width="56" height="52" as="geometry" />
        </mxCell>
        <mxCell id="r1PghD8o48_MAa_awycN-54" value="" style="image;sketch=0;aspect=fixed;html=1;points=[];align=center;fontSize=12;image=img/lib/mscae/Docker.svg;" vertex="1" parent="r1PghD8o48_MAa_awycN-18">
          <mxGeometry x="260" y="232" width="50" height="41" as="geometry" />
        </mxCell>
        <mxCell id="r1PghD8o48_MAa_awycN-24" value="GIFT CARD CLIENTS" style="swimlane;startSize=23;" vertex="1" parent="r1PghD8o48_MAa_awycN-65">
          <mxGeometry x="665" y="150" width="331" height="290" as="geometry" />
        </mxCell>
        <mxCell id="r1PghD8o48_MAa_awycN-25" value="" style="sketch=0;aspect=fixed;pointerEvents=1;shadow=0;dashed=0;html=1;strokeColor=none;labelPosition=center;verticalLabelPosition=bottom;verticalAlign=top;align=center;fillColor=#00188D;shape=mxgraph.mscae.enterprise.database_generic" vertex="1" parent="r1PghD8o48_MAa_awycN-24">
          <mxGeometry x="205" y="190" width="37" height="50" as="geometry" />
        </mxCell>
        <mxCell id="r1PghD8o48_MAa_awycN-26" value="SIERRA &lt;br&gt;SECURITY API" style="sketch=0;html=1;dashed=0;whitespace=wrap;fillColor=#2875E2;strokeColor=#ffffff;points=[[0.005,0.63,0],[0.1,0.2,0],[0.9,0.2,0],[0.5,0,0],[0.995,0.63,0],[0.72,0.99,0],[0.5,1,0],[0.28,0.99,0]];verticalLabelPosition=bottom;align=center;verticalAlign=top;shape=mxgraph.kubernetes.icon;prIcon=api" vertex="1" parent="r1PghD8o48_MAa_awycN-24">
          <mxGeometry x="130" y="60" width="50" height="48" as="geometry" />
        </mxCell>
        <mxCell id="r1PghD8o48_MAa_awycN-27" style="edgeStyle=orthogonalEdgeStyle;rounded=0;orthogonalLoop=1;jettySize=auto;html=1;entryX=0.5;entryY=1;entryDx=0;entryDy=0;entryPerimeter=0;" edge="1" parent="r1PghD8o48_MAa_awycN-24" source="r1PghD8o48_MAa_awycN-25" target="r1PghD8o48_MAa_awycN-26">
          <mxGeometry relative="1" as="geometry" />
        </mxCell>
        <mxCell id="r1PghD8o48_MAa_awycN-30" style="edgeStyle=orthogonalEdgeStyle;rounded=0;orthogonalLoop=1;jettySize=auto;html=1;" edge="1" parent="r1PghD8o48_MAa_awycN-24" source="r1PghD8o48_MAa_awycN-29" target="r1PghD8o48_MAa_awycN-26">
          <mxGeometry relative="1" as="geometry" />
        </mxCell>
        <mxCell id="r1PghD8o48_MAa_awycN-29" value="" style="shape=image;verticalLabelPosition=bottom;labelBackgroundColor=#ffffff;verticalAlign=top;aspect=fixed;imageAspect=0;image=data:image/svg+xml,PHN2ZyB4bWxuczpjYz0iaHR0cDovL2NyZWF0aXZlY29tbW9ucy5vcmcvbnMjIiB4bWxuczpkYz0iaHR0cDovL3B1cmwub3JnL2RjL2VsZW1lbnRzLzEuMS8iIHhtbG5zOmlua3NjYXBlPSJodHRwOi8vd3d3Lmlua3NjYXBlLm9yZy9uYW1lc3BhY2VzL2lua3NjYXBlIiB4bWxuczpyZGY9Imh0dHA6Ly93d3cudzMub3JnLzE5OTkvMDIvMjItcmRmLXN5bnRheC1ucyMiIHhtbG5zOnNvZGlwb2RpPSJodHRwOi8vc29kaXBvZGkuc291cmNlZm9yZ2UubmV0L0RURC9zb2RpcG9kaS0wLmR0ZCIgeG1sbnM6c3ZnPSJodHRwOi8vd3d3LnczLm9yZy8yMDAwL3N2ZyIgeG1sbnM9Imh0dHA6Ly93d3cudzMub3JnLzIwMDAvc3ZnIiB4bWxuczp4bGluaz0iaHR0cDovL3d3dy53My5vcmcvMTk5OS94bGluayIgdmVyc2lvbj0iMS4xIiBpZD0ic3ZnOTcyNDYiIGlua3NjYXBlOnZlcnNpb249IjAuOTIuMyAoMjQwNTU0NiwgMjAxOC0wMy0xMSkiIHNvZGlwb2RpOmRvY25hbWU9ImNvc21vX2RiLnN2ZyIgeD0iMHB4IiB5PSIwcHgiIHZpZXdCb3g9IjAgMCA1Ni4yIDUxLjc0IiBzdHlsZT0iZW5hYmxlLWJhY2tncm91bmQ6bmV3IDAgMCA1Ni4yIDUxLjc0OyIgeG1sOnNwYWNlPSJwcmVzZXJ2ZSI+JiN4YTs8c29kaXBvZGk6bmFtZWR2aWV3IGJvcmRlcmNvbG9yPSIjNjY2NjY2IiBib3JkZXJvcGFjaXR5PSIxIiBmaXQtbWFyZ2luLWJvdHRvbT0iMCIgZml0LW1hcmdpbi1sZWZ0PSIwIiBmaXQtbWFyZ2luLXJpZ2h0PSIwIiBmaXQtbWFyZ2luLXRvcD0iMCIgZ3JpZHRvbGVyYW5jZT0iMTAiIGd1aWRldG9sZXJhbmNlPSIxMCIgaWQ9Im5hbWVkdmlldzk3MjQ4IiBpbmtzY2FwZTpjdXJyZW50LWxheWVyPSJzdmc5NzI0NiIgaW5rc2NhcGU6Y3g9IjM3LjY0MjY5MyIgaW5rc2NhcGU6Y3k9IjM0LjQ5MzIyNiIgaW5rc2NhcGU6cGFnZW9wYWNpdHk9IjAiIGlua3NjYXBlOnBhZ2VzaGFkb3c9IjIiIGlua3NjYXBlOndpbmRvdy1oZWlnaHQ9IjEwMTciIGlua3NjYXBlOndpbmRvdy1tYXhpbWl6ZWQ9IjEiIGlua3NjYXBlOndpbmRvdy13aWR0aD0iMTkyMCIgaW5rc2NhcGU6d2luZG93LXg9Ii04IiBpbmtzY2FwZTp3aW5kb3cteT0iLTgiIGlua3NjYXBlOnpvb209IjEyLjIxMzU1MyIgb2JqZWN0dG9sZXJhbmNlPSIxMCIgcGFnZWNvbG9yPSIjZmZmZmZmIiBzaG93Z3JpZD0iZmFsc2UiPiYjeGE7CTwvc29kaXBvZGk6bmFtZWR2aWV3PiYjeGE7PGcgaWQ9Imc5NzI0NCIgdHJhbnNmb3JtPSJ0cmFuc2xhdGUoLTAuNzg3NDAxNTYsLTAuNzU0NSkiPiYjeGE7CTx0aXRsZSBpZD0idGl0bGU5NzIwNCI+UGFnZS0xPC90aXRsZT4mI3hhOwk8ZyBpZD0iZ3JvdXAzNjQxLTEiIHRyYW5zZm9ybT0idHJhbnNsYXRlKDAsLTAuNzUpIj4mI3hhOwkJPHRpdGxlIGlkPSJ0aXRsZTk3MjA2Ij5Db3NtbyBEQi42Mjg8L3RpdGxlPiYjeGE7CQk8ZyBpZD0ic2hhcGUzNjQyLTIiIHRyYW5zZm9ybT0idHJhbnNsYXRlKDguNjYwODMsLTMuODI0MjYpIj4mI3hhOwkJCTx0aXRsZSBpZD0idGl0bGU5NzIwOCI+U2hlZXQuMzY0MjwvdGl0bGU+JiN4YTsJCQk8cGF0aCBpZD0icGF0aDk3MjEwIiBpbmtzY2FwZTpjb25uZWN0b3ItY3VydmF0dXJlPSIwIiBzdHlsZT0iZmlsbDojNTlCNEQ5OyIgZD0iTTM4LjU4LDI4LjQ5YzIuMzYsMTAuMDItMy43MSwyMC4wMy0xMy43MiwyMi4zOSAgICAgUzQuOTUsNDcuMjgsMi40NywzNy4yN0MwLDI3LjI2LDYuMTksMTcuMjUsMTYuMiwxNC44OGwwLDBDMjYuMDksMTIuNDEsMzYuMTEsMTguNDgsMzguNTgsMjguNDlMMzguNTgsMjguNDl6Ii8+JiN4YTsJCTwvZz4mI3hhOwkJPGcgaWQ9InNoYXBlMzY0My00IiB0cmFuc2Zvcm09InRyYW5zbGF0ZSg5Ljg5ODEsLTExLjgxMDIpIj4mI3hhOwkJCTx0aXRsZSBpZD0idGl0bGU5NzIxMyI+U2hlZXQuMzY0MzwvdGl0bGU+JiN4YTsJCQk8cGF0aCBpZD0icGF0aDk3MjE1IiBpbmtzY2FwZTpjb25uZWN0b3ItY3VydmF0dXJlPSIwIiBzdHlsZT0iZmlsbDojRkZGRkZGO2ZpbGwtb3BhY2l0eTowLjU7IiBkPSJNMTYuNjUsNDguMjkgICAgIGMwLTIuNy0yLjI1LTQuOTUtNC45NS00Ljk1bDAsMGgtMC43OWMwLjY4LTIuNTktMS4wMS01LjI4LTMuNi01Ljk2Yy0wLjM0LTAuMTEtMC43OS0wLjExLTEuMjQtMC4xMUgxLjEyICAgICBDMCw0MywxLjY5LDQ4Ljg1LDUuNjIsNTMuMTNoNi4xOUMxNC41MSw1My4yNCwxNi42NSw1MS4xLDE2LjY1LDQ4LjI5TDE2LjY1LDQ4LjI5eiIvPiYjeGE7CQk8L2c+JiN4YTsJCTxnIGlkPSJzaGFwZTM2NDQtNiIgdHJhbnNmb3JtPSJ0cmFuc2xhdGUoMjUuNTMyNiwtMjUuODcpIj4mI3hhOwkJCTx0aXRsZSBpZD0idGl0bGU5NzIxOCI+U2hlZXQuMzY0NDwvdGl0bGU+JiN4YTsJCQk8cGF0aCBpZD0icGF0aDk3MjIwIiBpbmtzY2FwZTpjb25uZWN0b3ItY3VydmF0dXJlPSIwIiBzdHlsZT0iZmlsbDojRkZGRkZGO2ZpbGwtb3BhY2l0eTowLjU7IiBkPSJNNy4yLDQxLjk5ICAgICBjMCwwLjM0LDAsMC41NiwwLjExLDAuOUg1LjE3QzIuMzYsNDIuODksMCw0NS4xNCwwLDQ4LjA3YzAsMi45MiwyLjI1LDUuMTcsNS4xNyw1LjE3aDE2Ljk5Yy0wLjU2LTYuMy00LjE2LTExLjctOS41Ni0xNC42MiAgICAgaC0yLjAzQzguNjYsMzguNjIsNy4yLDQwLjA4LDcuMiw0MS45OXoiLz4mI3hhOwkJPC9nPiYjeGE7CQk8ZyBpZD0ic2hhcGUzNjQ1LTgiIHRyYW5zZm9ybT0idHJhbnNsYXRlKDMwLjQ4MTYsLTcuOTg1OTYpIj4mI3hhOwkJCTx0aXRsZSBpZD0idGl0bGU5NzIyMyI+U2hlZXQuMzY0NTwvdGl0bGU+JiN4YTsJCQk8cGF0aCBpZD0icGF0aDk3MjI1IiBpbmtzY2FwZTpjb25uZWN0b3ItY3VydmF0dXJlPSIwIiBzdHlsZT0iZmlsbDojRkZGRkZGO2ZpbGwtb3BhY2l0eTowLjU7IiBkPSJNMTcuMjEsMzguOTZINy4wOSAgICAgYy0yLjI1LDAtNC4xNywxLjc5LTQuMTcsNC4xNmMwLDAuNjcsMC4yMywxLjM1LDAuNDUsMi4wMmMtMi4yNSwwLjY4LTMuMzcsMy4wNC0yLjcsNS4xOGMwLjU3LDEuOCwyLjE0LDIuOTIsNC4wNSwyLjkyaDIuNyAgICAgQzEyLjgyLDUwLjQzLDE2LjUzLDQ1LjAzLDE3LjIxLDM4Ljk2eiIvPiYjeGE7CQk8L2c+JiN4YTsJCTxnIGlkPSJzaGFwZTM2NDYtMTAiIHRyYW5zZm9ybT0idHJhbnNsYXRlKDAuNzg3MzQ5LC0zNi41NTU1KSI+JiN4YTsJCQk8dGl0bGUgaWQ9InRpdGxlOTcyMjgiPlNoZWV0LjM2NDY8L3RpdGxlPiYjeGE7CQkJPHBhdGggaWQ9InBhdGg5NzIzMCIgaW5rc2NhcGU6Y29ubmVjdG9yLWN1cnZhdHVyZT0iMCIgc3R5bGU9ImZpbGw6I0I4RDQzMjsiIGQ9Ik03LjY1LDUzLjI0Yy0wLjM0LDAtMC41Ni0wLjIyLTAuNTYtMC41NiAgICAgYzAtMy42LTIuOTMtNi41My02LjUzLTYuNTNDMC4yMiw0Ni4yNywwLDQ1LjkzLDAsNDUuN2MwLTAuMjIsMC4yMi0wLjU2LDAuNTYtMC41NmMzLjYsMCw2LjUzLTIuOTIsNi41My02LjUyICAgICBjMC0wLjM0LDAuMjItMC41NiwwLjU2LTAuNTZzMC41NiwwLjIyLDAuNTYsMC41NmMwLDMuNiwyLjkzLDYuNTIsNi41Miw2LjUyYzAuMzQsMCwwLjU3LDAuMjMsMC41NywwLjU2ICAgICBjMCwwLjM0LTAuMjMsMC41Ny0wLjU3LDAuNTdjLTMuNTksMC02LjUyLDIuOTItNi41Miw2LjUyQzguMjEsNTMuMDIsNy45OSw1My4yNCw3LjY1LDUzLjI0eiIvPiYjeGE7CQk8L2c+JiN4YTsJCTxnIGlkPSJzaGFwZTM2NDctMTIiIHRyYW5zZm9ybT0idHJhbnNsYXRlKDQzLjg2NjYpIj4mI3hhOwkJCTx0aXRsZSBpZD0idGl0bGU5NzIzMyI+U2hlZXQuMzY0NzwvdGl0bGU+JiN4YTsJCQk8cGF0aCBpZD0icGF0aDk3MjM1IiBpbmtzY2FwZTpjb25uZWN0b3ItY3VydmF0dXJlPSIwIiBzdHlsZT0iZmlsbDojMjZCQ0VFOyIgZD0iTTQuNjEsNTMuMjRjLTAuMjIsMC0wLjM0LTAuMTEtMC4zNC0wLjM0ICAgICBjMC0yLjEzLTEuOC0zLjgyLTMuOTMtMy44MkMwLjExLDQ5LjA4LDAsNDguOTcsMCw0OC43NGMwLTAuMjIsMC4xMS0wLjM0LDAuMzQtMC4zNGwwLDBjMi4xMywwLDMuODItMS42OCwzLjkzLTMuODIgICAgIGMwLTAuMjMsMC4xMi0wLjM0LDAuMzQtMC4zNGMwLjIzLDAsMC4zNCwwLjExLDAuMzQsMC4zNGMwLDIuMTQsMS44LDMuODIsMy45NCwzLjgyYzAuMjIsMCwwLjMzLDAuMTIsMC4zMywwLjM0ICAgICBjMCwwLjIzLTAuMTEsMC4zNC0wLjMzLDAuMzRsMCwwYy0yLjE0LDAtMy44MywxLjY5LTMuOTQsMy44MkM0Ljk1LDUzLjAyLDQuODQsNTMuMjQsNC42MSw1My4yNEw0LjYxLDUzLjI0eiIvPiYjeGE7CQk8L2c+JiN4YTsJCTxnIGlkPSJzaGFwZTM2NDgtMTQiIHRyYW5zZm9ybT0idHJhbnNsYXRlKDAsLTUuMDYxNTMpIj4mI3hhOwkJCTx0aXRsZSBpZD0idGl0bGU5NzIzOCI+U2hlZXQuMzY0ODwvdGl0bGU+JiN4YTsJCQk8cGF0aCBpZD0icGF0aDk3MjQwIiBpbmtzY2FwZTpjb25uZWN0b3ItY3VydmF0dXJlPSIwIiBzdHlsZT0iZmlsbDojMEYwRjBGOyIgZD0iTTU2LjI0LDE3LjQ3Yy0xLjgtMi45Mi02LjE5LTMuNi0xMi45NC0xLjkxICAgICBjLTIuMDIsMC41Ni00LjE2LDEuMTItNi4wNywxLjkxYzEuMjQsMC42OCwyLjQ3LDEuMzUsMy42LDIuMjVjMS4xMi0wLjM0LDIuMjUtMC42NywzLjI2LTEuMDFjMS44LTAuNDUsMy42LTAuNjgsNS40LTAuNzkgICAgIGMyLjE0LDAsMy4zNywwLjU2LDMuODIsMS4yNGMwLjY4LDEuMTIsMCwzLjk0LTMuODIsOC40M2MtMC42NywwLjc5LTEuNDYsMS41OC0yLjI1LDIuMzdjLTQuMjcsNC4wNS04Ljg4LDcuNjUtMTMuOTUsMTAuNjggICAgIGMtNS4wNiwzLjE1LTEwLjM0LDUuNzQtMTUuOTcsNy41NGMtNi43NSwyLjE0LTExLjM2LDIuMTQtMTIuMzcsMC40NWMtMS4wMS0xLjY5LDEuMDEtNS44NSw2LjA3LTEwLjggICAgIGMtMC4zMy0xLjQ2LTAuNDUtMi45Mi0wLjQ1LTQuMjdDMi41OSw0MC43NSwwLDQ3LjA1LDIuMDIsNTAuNDNjMS4xMywxLjgsMy40OSwyLjgxLDYuODcsMi44MWM0LjA1LTAuMjIsOC4wOS0xLjAxLDExLjkyLTIuNTkgICAgIGM0Ljk1LTEuOTEsOS42Ny00LjI3LDE0LjA2LTcuMDhjNC41LTIuNyw4Ljc3LTUuODUsMTIuNzEtOS40NWMxLjU3LTEuMzUsMy4wNC0yLjgxLDQuMzktNC4zOSAgICAgQzU2LjU4LDI0LjU2LDU4LjA0LDIwLjI4LDU2LjI0LDE3LjQ3eiIvPiYjeGE7CQk8L2c+JiN4YTsJPC9nPiYjeGE7PC9nPiYjeGE7PC9zdmc+;" vertex="1" parent="r1PghD8o48_MAa_awycN-24">
          <mxGeometry x="55" y="190" width="56" height="52" as="geometry" />
        </mxCell>
        <mxCell id="r1PghD8o48_MAa_awycN-55" value="" style="image;sketch=0;aspect=fixed;html=1;points=[];align=center;fontSize=12;image=img/lib/mscae/Docker.svg;" vertex="1" parent="r1PghD8o48_MAa_awycN-24">
          <mxGeometry x="265" y="232" width="50" height="41" as="geometry" />
        </mxCell>
        <mxCell id="r1PghD8o48_MAa_awycN-49" style="edgeStyle=orthogonalEdgeStyle;rounded=0;orthogonalLoop=1;jettySize=auto;html=1;" edge="1" parent="r1PghD8o48_MAa_awycN-65" source="r1PghD8o48_MAa_awycN-28">
          <mxGeometry relative="1" as="geometry">
            <mxPoint x="660.0000000000002" y="305.0000000000007" as="targetPoint" />
          </mxGeometry>
        </mxCell>
        <mxCell id="r1PghD8o48_MAa_awycN-28" value="" style="shape=image;verticalLabelPosition=bottom;labelBackgroundColor=#ffffff;verticalAlign=top;aspect=fixed;imageAspect=0;image=data:image/svg+xml,PHN2ZyB4bWxuczpkYz0iaHR0cDovL3B1cmwub3JnL2RjL2VsZW1lbnRzLzEuMS8iIHhtbG5zOmNjPSJodHRwOi8vY3JlYXRpdmVjb21tb25zLm9yZy9ucyMiIHhtbG5zOnJkZj0iaHR0cDovL3d3dy53My5vcmcvMTk5OS8wMi8yMi1yZGYtc3ludGF4LW5zIyIgeG1sbnM6c3ZnPSJodHRwOi8vd3d3LnczLm9yZy8yMDAwL3N2ZyIgeG1sbnM9Imh0dHA6Ly93d3cudzMub3JnLzIwMDAvc3ZnIiB4bWxuczpzb2RpcG9kaT0iaHR0cDovL3NvZGlwb2RpLnNvdXJjZWZvcmdlLm5ldC9EVEQvc29kaXBvZGktMC5kdGQiIHhtbG5zOmlua3NjYXBlPSJodHRwOi8vd3d3Lmlua3NjYXBlLm9yZy9uYW1lc3BhY2VzL2lua3NjYXBlIiB2ZXJzaW9uPSIxLjEiIGlkPSJzdmc2MjQ1MSIgaW5rc2NhcGU6dmVyc2lvbj0iMC45Mi4zICgyNDA1NTQ2LCAyMDE4LTAzLTExKSIgc29kaXBvZGk6ZG9jbmFtZT0iYXp1cmVfc2VydmljZV9idXNfcXVldWVzLnN2ZyIgeD0iMHB4IiB5PSIwcHgiIHZpZXdCb3g9IjAgMCAzNy41IDM3LjUiIHhtbDpzcGFjZT0icHJlc2VydmUiIHdpZHRoPSIzNy41IiBoZWlnaHQ9IjM3LjUiPjxtZXRhZGF0YSBpZD0ibWV0YWRhdGExNjY5MyI+PHJkZjpSREY+PGNjOldvcmsgcmRmOmFib3V0PSIiPjxkYzpmb3JtYXQ+aW1hZ2Uvc3ZnK3htbDwvZGM6Zm9ybWF0PjxkYzp0eXBlIHJkZjpyZXNvdXJjZT0iaHR0cDovL3B1cmwub3JnL2RjL2RjbWl0eXBlL1N0aWxsSW1hZ2UiLz48ZGM6dGl0bGUvPjwvY2M6V29yaz48L3JkZjpSREY+PC9tZXRhZGF0YT48ZGVmcyBpZD0iZGVmczE2NjkxIi8+JiN4YTs8ZmlsdGVyIGlkPSJmaWx0ZXJfMiI+JiN4YTsJPGZlR2F1c3NpYW5CbHVyIGlkPSJmZUdhdXNzaWFuQmx1cjYyMzc2IiBzdGREZXZpYXRpb249IjIiLz4mI3hhOzwvZmlsdGVyPiYjeGE7PHNvZGlwb2RpOm5hbWVkdmlldyBib3JkZXJjb2xvcj0iIzY2NjY2NiIgYm9yZGVyb3BhY2l0eT0iMSIgZml0LW1hcmdpbi1ib3R0b209IjAiIGZpdC1tYXJnaW4tbGVmdD0iMCIgZml0LW1hcmdpbi1yaWdodD0iMCIgZml0LW1hcmdpbi10b3A9IjAiIGdyaWR0b2xlcmFuY2U9IjEwIiBndWlkZXRvbGVyYW5jZT0iMTAiIGlkPSJuYW1lZHZpZXc2MjQ1MyIgaW5rc2NhcGU6Y3VycmVudC1sYXllcj0ic3ZnNjI0NTEiIGlua3NjYXBlOmN4PSItNS4zNzMxNTMyIiBpbmtzY2FwZTpjeT0iMTUuMTYxNjczIiBpbmtzY2FwZTpwYWdlb3BhY2l0eT0iMCIgaW5rc2NhcGU6cGFnZXNoYWRvdz0iMiIgaW5rc2NhcGU6d2luZG93LWhlaWdodD0iMTAxNyIgaW5rc2NhcGU6d2luZG93LW1heGltaXplZD0iMSIgaW5rc2NhcGU6d2luZG93LXdpZHRoPSIxOTIwIiBpbmtzY2FwZTp3aW5kb3cteD0iLTgiIGlua3NjYXBlOndpbmRvdy15PSItOCIgaW5rc2NhcGU6em9vbT0iMTAuNTcwMDIyIiBvYmplY3R0b2xlcmFuY2U9IjEwIiBwYWdlY29sb3I9IiNmZmZmZmYiIHNob3dncmlkPSJmYWxzZSI+JiN4YTsJPC9zb2RpcG9kaTpuYW1lZHZpZXc+JiN4YTsmI3hhOzxwYXRoIGlkPSJwYXRoNjIzODkiIGlua3NjYXBlOmNvbm5lY3Rvci1jdXJ2YXR1cmU9IjAiIHN0eWxlPSJmaWxsOiMwMDcyYzYiIGQ9Ik0gMC42MiwwIEMgMC4yNSwwIDAsMC4yNSAwLDAuNjIgdiA3LjUgQyAwLDguNSAwLjI1LDguNzUgMC42Miw4Ljc1IEggNC4zNyBDIDQuNzUsOC43NSA1LDguNSA1LDguMTIgViA1IGggMjcuNSB2IDMuMTMgYyAwLDAuMzcgMC4yNSwwLjYyIDAuNzUsMC42MiBoIDMuNjIgYyAwLjM4LDAgMC42MywtMC4yNSAwLjYzLC0wLjYyIFYgNC4zOCAwLjYzIEMgMzcuNSwwLjI1IDM3LjI1LDAgMzYuODgsMCBaIi8+JiN4YTsmI3hhOzxwYXRoIGlkPSJwYXRoNjIzOTciIGlua3NjYXBlOmNvbm5lY3Rvci1jdXJ2YXR1cmU9IjAiIHN0eWxlPSJmaWxsOiMwMDcyYzYiIGQ9Im0gMzYuODgsMzcuNSBjIDAuMzcsMCAwLjYyLC0wLjI1IDAuNjIsLTAuNjIgViAyOS41IGMgMCwtMC4zNyAtMC4yNSwtMC42MiAtMC42MiwtMC42MiBoIC0zLjYzIGMgLTAuMzcsMCAtMC42MiwwLjI1IC0wLjYyLDAuNjIgdiAzIEggNSBWIDI5LjM4IEMgNSwyOSA0Ljc1LDI4Ljc1IDQuMjUsMjguNzUgSCAwLjYyIEMgMC4yNSwyOC43NSAwLDI5IDAsMjkuNSB2IDcuMzggYyAwLDAuMzcgMC4yNSwwLjYyIDAuNjIsMC42MiB6Ii8+JiN4YTsmI3hhOzxwYXRoIGlkPSJwYXRoNjI0MDUiIGlua3NjYXBlOmNvbm5lY3Rvci1jdXJ2YXR1cmU9IjAiIHN0eWxlPSJmaWxsOiM1OWI0ZDkiIGQ9Im0gOS4yNCwxOS4yOCBjIC0wLjYzLDAuNjMgLTEuNDcsMC45OCAtMi4zNiwwLjk4IC0wLjg5LDAgLTEuNzMsLTAuMzUgLTIuMzYsLTAuOTggTCAwLDE0Ljc2IHYgOS4xOSBoIDEzLjc3IHYgLTkuMTkgeiIvPiYjeGE7JiN4YTs8cGF0aCBpZD0icGF0aDYyNDEzIiBpbmtzY2FwZTpjb25uZWN0b3ItY3VydmF0dXJlPSIwIiBzdHlsZT0iZmlsbDojNTliNGQ5IiBkPSJtIDYuODgsMTkuNTkgYyAwLjcyLDAgMS4zOCwtMC4yOCAxLjg5LC0wLjc4IGwgNSwtNSBWIDEzLjU1IEggMCB2IDAuMjYgbCA1LDUgYyAwLjUsMC41IDEuMTcsMC43OCAxLjg4LDAuNzggeiIvPiYjeGE7JiN4YTs8cGF0aCBpZD0icGF0aDYyNDIxIiBpbmtzY2FwZTpjb25uZWN0b3ItY3VydmF0dXJlPSIwIiBzdHlsZT0iZmlsbDojNTliNGQ5IiBkPSJtIDMyLjk3LDE5LjI4IGMgLTAuNjMsMC42MyAtMS40NywwLjk4IC0yLjM2LDAuOTggLTAuODksMCAtMS43MywtMC4zNSAtMi4zNiwtMC45OCBsIC00LjUyLC00LjUyIHYgOS4xOSBIIDM3LjUgdiAtOS4xOSB6Ii8+JiN4YTsmI3hhOzxwYXRoIGlkPSJwYXRoNjI0MjkiIGlua3NjYXBlOmNvbm5lY3Rvci1jdXJ2YXR1cmU9IjAiIHN0eWxlPSJmaWxsOiM1OWI0ZDkiIGQ9Im0gMzAuNjEsMTkuNTkgYyAwLjcyLDAgMS4zOCwtMC4yOCAxLjg5LC0wLjc4IGwgNSwtNSBWIDEzLjU1IEggMjMuNzMgdiAwLjI2IGwgNSw1IGMgMC41LDAuNSAxLjE3LDAuNzggMS44OCwwLjc4IHoiLz4mI3hhOyYjeGE7PHJlY3QgaWQ9InJlY3Q2MjQzNyIgeD0iMTkuMzYwMDAxIiB5PSIxNy44MyIgc3R5bGU9ImZpbGw6I2I4ZDQzMiIgd2lkdGg9IjIuMzA5OTk5OSIgaGVpZ2h0PSIxLjgzIi8+JiN4YTsmI3hhOzxyZWN0IGlkPSJyZWN0NjI0NDUiIHg9IjE1Ljc3OTk5OSIgeT0iMTcuODMiIHN0eWxlPSJmaWxsOiNiOGQ0MzIiIHdpZHRoPSIyLjQ1IiBoZWlnaHQ9IjEuODMiLz4mI3hhOzwvc3ZnPg==;" vertex="1" parent="r1PghD8o48_MAa_awycN-65">
          <mxGeometry x="520.0000000000001" y="286.0000000000009" width="38" height="38" as="geometry" />
        </mxCell>
        <mxCell id="r1PghD8o48_MAa_awycN-40" value="MICROSERVICE N" style="swimlane;startSize=23;" vertex="1" parent="r1PghD8o48_MAa_awycN-65">
          <mxGeometry x="60" y="152" width="331" height="290" as="geometry" />
        </mxCell>
        <mxCell id="r1PghD8o48_MAa_awycN-41" value="" style="sketch=0;aspect=fixed;pointerEvents=1;shadow=0;dashed=0;html=1;strokeColor=none;labelPosition=center;verticalLabelPosition=bottom;verticalAlign=top;align=center;fillColor=#00188D;shape=mxgraph.mscae.enterprise.database_generic" vertex="1" parent="r1PghD8o48_MAa_awycN-40">
          <mxGeometry x="205" y="190" width="37" height="50" as="geometry" />
        </mxCell>
        <mxCell id="r1PghD8o48_MAa_awycN-42" value="MICROSERVICE N" style="sketch=0;html=1;dashed=0;whitespace=wrap;fillColor=#2875E2;strokeColor=#ffffff;points=[[0.005,0.63,0],[0.1,0.2,0],[0.9,0.2,0],[0.5,0,0],[0.995,0.63,0],[0.72,0.99,0],[0.5,1,0],[0.28,0.99,0]];verticalLabelPosition=bottom;align=center;verticalAlign=top;shape=mxgraph.kubernetes.icon;prIcon=api" vertex="1" parent="r1PghD8o48_MAa_awycN-40">
          <mxGeometry x="130" y="60" width="50" height="48" as="geometry" />
        </mxCell>
        <mxCell id="r1PghD8o48_MAa_awycN-43" style="edgeStyle=orthogonalEdgeStyle;rounded=0;orthogonalLoop=1;jettySize=auto;html=1;entryX=0.5;entryY=1;entryDx=0;entryDy=0;entryPerimeter=0;" edge="1" parent="r1PghD8o48_MAa_awycN-40" source="r1PghD8o48_MAa_awycN-41" target="r1PghD8o48_MAa_awycN-42">
          <mxGeometry relative="1" as="geometry" />
        </mxCell>
        <mxCell id="r1PghD8o48_MAa_awycN-44" style="edgeStyle=orthogonalEdgeStyle;rounded=0;orthogonalLoop=1;jettySize=auto;html=1;" edge="1" parent="r1PghD8o48_MAa_awycN-40" source="r1PghD8o48_MAa_awycN-45" target="r1PghD8o48_MAa_awycN-42">
          <mxGeometry relative="1" as="geometry" />
        </mxCell>
        <mxCell id="r1PghD8o48_MAa_awycN-45" value="" style="shape=image;verticalLabelPosition=bottom;labelBackgroundColor=#ffffff;verticalAlign=top;aspect=fixed;imageAspect=0;image=data:image/svg+xml,PHN2ZyB4bWxuczpjYz0iaHR0cDovL2NyZWF0aXZlY29tbW9ucy5vcmcvbnMjIiB4bWxuczpkYz0iaHR0cDovL3B1cmwub3JnL2RjL2VsZW1lbnRzLzEuMS8iIHhtbG5zOmlua3NjYXBlPSJodHRwOi8vd3d3Lmlua3NjYXBlLm9yZy9uYW1lc3BhY2VzL2lua3NjYXBlIiB4bWxuczpyZGY9Imh0dHA6Ly93d3cudzMub3JnLzE5OTkvMDIvMjItcmRmLXN5bnRheC1ucyMiIHhtbG5zOnNvZGlwb2RpPSJodHRwOi8vc29kaXBvZGkuc291cmNlZm9yZ2UubmV0L0RURC9zb2RpcG9kaS0wLmR0ZCIgeG1sbnM6c3ZnPSJodHRwOi8vd3d3LnczLm9yZy8yMDAwL3N2ZyIgeG1sbnM9Imh0dHA6Ly93d3cudzMub3JnLzIwMDAvc3ZnIiB4bWxuczp4bGluaz0iaHR0cDovL3d3dy53My5vcmcvMTk5OS94bGluayIgdmVyc2lvbj0iMS4xIiBpZD0ic3ZnOTcyNDYiIGlua3NjYXBlOnZlcnNpb249IjAuOTIuMyAoMjQwNTU0NiwgMjAxOC0wMy0xMSkiIHNvZGlwb2RpOmRvY25hbWU9ImNvc21vX2RiLnN2ZyIgeD0iMHB4IiB5PSIwcHgiIHZpZXdCb3g9IjAgMCA1Ni4yIDUxLjc0IiBzdHlsZT0iZW5hYmxlLWJhY2tncm91bmQ6bmV3IDAgMCA1Ni4yIDUxLjc0OyIgeG1sOnNwYWNlPSJwcmVzZXJ2ZSI+JiN4YTs8c29kaXBvZGk6bmFtZWR2aWV3IGJvcmRlcmNvbG9yPSIjNjY2NjY2IiBib3JkZXJvcGFjaXR5PSIxIiBmaXQtbWFyZ2luLWJvdHRvbT0iMCIgZml0LW1hcmdpbi1sZWZ0PSIwIiBmaXQtbWFyZ2luLXJpZ2h0PSIwIiBmaXQtbWFyZ2luLXRvcD0iMCIgZ3JpZHRvbGVyYW5jZT0iMTAiIGd1aWRldG9sZXJhbmNlPSIxMCIgaWQ9Im5hbWVkdmlldzk3MjQ4IiBpbmtzY2FwZTpjdXJyZW50LWxheWVyPSJzdmc5NzI0NiIgaW5rc2NhcGU6Y3g9IjM3LjY0MjY5MyIgaW5rc2NhcGU6Y3k9IjM0LjQ5MzIyNiIgaW5rc2NhcGU6cGFnZW9wYWNpdHk9IjAiIGlua3NjYXBlOnBhZ2VzaGFkb3c9IjIiIGlua3NjYXBlOndpbmRvdy1oZWlnaHQ9IjEwMTciIGlua3NjYXBlOndpbmRvdy1tYXhpbWl6ZWQ9IjEiIGlua3NjYXBlOndpbmRvdy13aWR0aD0iMTkyMCIgaW5rc2NhcGU6d2luZG93LXg9Ii04IiBpbmtzY2FwZTp3aW5kb3cteT0iLTgiIGlua3NjYXBlOnpvb209IjEyLjIxMzU1MyIgb2JqZWN0dG9sZXJhbmNlPSIxMCIgcGFnZWNvbG9yPSIjZmZmZmZmIiBzaG93Z3JpZD0iZmFsc2UiPiYjeGE7CTwvc29kaXBvZGk6bmFtZWR2aWV3PiYjeGE7PGcgaWQ9Imc5NzI0NCIgdHJhbnNmb3JtPSJ0cmFuc2xhdGUoLTAuNzg3NDAxNTYsLTAuNzU0NSkiPiYjeGE7CTx0aXRsZSBpZD0idGl0bGU5NzIwNCI+UGFnZS0xPC90aXRsZT4mI3hhOwk8ZyBpZD0iZ3JvdXAzNjQxLTEiIHRyYW5zZm9ybT0idHJhbnNsYXRlKDAsLTAuNzUpIj4mI3hhOwkJPHRpdGxlIGlkPSJ0aXRsZTk3MjA2Ij5Db3NtbyBEQi42Mjg8L3RpdGxlPiYjeGE7CQk8ZyBpZD0ic2hhcGUzNjQyLTIiIHRyYW5zZm9ybT0idHJhbnNsYXRlKDguNjYwODMsLTMuODI0MjYpIj4mI3hhOwkJCTx0aXRsZSBpZD0idGl0bGU5NzIwOCI+U2hlZXQuMzY0MjwvdGl0bGU+JiN4YTsJCQk8cGF0aCBpZD0icGF0aDk3MjEwIiBpbmtzY2FwZTpjb25uZWN0b3ItY3VydmF0dXJlPSIwIiBzdHlsZT0iZmlsbDojNTlCNEQ5OyIgZD0iTTM4LjU4LDI4LjQ5YzIuMzYsMTAuMDItMy43MSwyMC4wMy0xMy43MiwyMi4zOSAgICAgUzQuOTUsNDcuMjgsMi40NywzNy4yN0MwLDI3LjI2LDYuMTksMTcuMjUsMTYuMiwxNC44OGwwLDBDMjYuMDksMTIuNDEsMzYuMTEsMTguNDgsMzguNTgsMjguNDlMMzguNTgsMjguNDl6Ii8+JiN4YTsJCTwvZz4mI3hhOwkJPGcgaWQ9InNoYXBlMzY0My00IiB0cmFuc2Zvcm09InRyYW5zbGF0ZSg5Ljg5ODEsLTExLjgxMDIpIj4mI3hhOwkJCTx0aXRsZSBpZD0idGl0bGU5NzIxMyI+U2hlZXQuMzY0MzwvdGl0bGU+JiN4YTsJCQk8cGF0aCBpZD0icGF0aDk3MjE1IiBpbmtzY2FwZTpjb25uZWN0b3ItY3VydmF0dXJlPSIwIiBzdHlsZT0iZmlsbDojRkZGRkZGO2ZpbGwtb3BhY2l0eTowLjU7IiBkPSJNMTYuNjUsNDguMjkgICAgIGMwLTIuNy0yLjI1LTQuOTUtNC45NS00Ljk1bDAsMGgtMC43OWMwLjY4LTIuNTktMS4wMS01LjI4LTMuNi01Ljk2Yy0wLjM0LTAuMTEtMC43OS0wLjExLTEuMjQtMC4xMUgxLjEyICAgICBDMCw0MywxLjY5LDQ4Ljg1LDUuNjIsNTMuMTNoNi4xOUMxNC41MSw1My4yNCwxNi42NSw1MS4xLDE2LjY1LDQ4LjI5TDE2LjY1LDQ4LjI5eiIvPiYjeGE7CQk8L2c+JiN4YTsJCTxnIGlkPSJzaGFwZTM2NDQtNiIgdHJhbnNmb3JtPSJ0cmFuc2xhdGUoMjUuNTMyNiwtMjUuODcpIj4mI3hhOwkJCTx0aXRsZSBpZD0idGl0bGU5NzIxOCI+U2hlZXQuMzY0NDwvdGl0bGU+JiN4YTsJCQk8cGF0aCBpZD0icGF0aDk3MjIwIiBpbmtzY2FwZTpjb25uZWN0b3ItY3VydmF0dXJlPSIwIiBzdHlsZT0iZmlsbDojRkZGRkZGO2ZpbGwtb3BhY2l0eTowLjU7IiBkPSJNNy4yLDQxLjk5ICAgICBjMCwwLjM0LDAsMC41NiwwLjExLDAuOUg1LjE3QzIuMzYsNDIuODksMCw0NS4xNCwwLDQ4LjA3YzAsMi45MiwyLjI1LDUuMTcsNS4xNyw1LjE3aDE2Ljk5Yy0wLjU2LTYuMy00LjE2LTExLjctOS41Ni0xNC42MiAgICAgaC0yLjAzQzguNjYsMzguNjIsNy4yLDQwLjA4LDcuMiw0MS45OXoiLz4mI3hhOwkJPC9nPiYjeGE7CQk8ZyBpZD0ic2hhcGUzNjQ1LTgiIHRyYW5zZm9ybT0idHJhbnNsYXRlKDMwLjQ4MTYsLTcuOTg1OTYpIj4mI3hhOwkJCTx0aXRsZSBpZD0idGl0bGU5NzIyMyI+U2hlZXQuMzY0NTwvdGl0bGU+JiN4YTsJCQk8cGF0aCBpZD0icGF0aDk3MjI1IiBpbmtzY2FwZTpjb25uZWN0b3ItY3VydmF0dXJlPSIwIiBzdHlsZT0iZmlsbDojRkZGRkZGO2ZpbGwtb3BhY2l0eTowLjU7IiBkPSJNMTcuMjEsMzguOTZINy4wOSAgICAgYy0yLjI1LDAtNC4xNywxLjc5LTQuMTcsNC4xNmMwLDAuNjcsMC4yMywxLjM1LDAuNDUsMi4wMmMtMi4yNSwwLjY4LTMuMzcsMy4wNC0yLjcsNS4xOGMwLjU3LDEuOCwyLjE0LDIuOTIsNC4wNSwyLjkyaDIuNyAgICAgQzEyLjgyLDUwLjQzLDE2LjUzLDQ1LjAzLDE3LjIxLDM4Ljk2eiIvPiYjeGE7CQk8L2c+JiN4YTsJCTxnIGlkPSJzaGFwZTM2NDYtMTAiIHRyYW5zZm9ybT0idHJhbnNsYXRlKDAuNzg3MzQ5LC0zNi41NTU1KSI+JiN4YTsJCQk8dGl0bGUgaWQ9InRpdGxlOTcyMjgiPlNoZWV0LjM2NDY8L3RpdGxlPiYjeGE7CQkJPHBhdGggaWQ9InBhdGg5NzIzMCIgaW5rc2NhcGU6Y29ubmVjdG9yLWN1cnZhdHVyZT0iMCIgc3R5bGU9ImZpbGw6I0I4RDQzMjsiIGQ9Ik03LjY1LDUzLjI0Yy0wLjM0LDAtMC41Ni0wLjIyLTAuNTYtMC41NiAgICAgYzAtMy42LTIuOTMtNi41My02LjUzLTYuNTNDMC4yMiw0Ni4yNywwLDQ1LjkzLDAsNDUuN2MwLTAuMjIsMC4yMi0wLjU2LDAuNTYtMC41NmMzLjYsMCw2LjUzLTIuOTIsNi41My02LjUyICAgICBjMC0wLjM0LDAuMjItMC41NiwwLjU2LTAuNTZzMC41NiwwLjIyLDAuNTYsMC41NmMwLDMuNiwyLjkzLDYuNTIsNi41Miw2LjUyYzAuMzQsMCwwLjU3LDAuMjMsMC41NywwLjU2ICAgICBjMCwwLjM0LTAuMjMsMC41Ny0wLjU3LDAuNTdjLTMuNTksMC02LjUyLDIuOTItNi41Miw2LjUyQzguMjEsNTMuMDIsNy45OSw1My4yNCw3LjY1LDUzLjI0eiIvPiYjeGE7CQk8L2c+JiN4YTsJCTxnIGlkPSJzaGFwZTM2NDctMTIiIHRyYW5zZm9ybT0idHJhbnNsYXRlKDQzLjg2NjYpIj4mI3hhOwkJCTx0aXRsZSBpZD0idGl0bGU5NzIzMyI+U2hlZXQuMzY0NzwvdGl0bGU+JiN4YTsJCQk8cGF0aCBpZD0icGF0aDk3MjM1IiBpbmtzY2FwZTpjb25uZWN0b3ItY3VydmF0dXJlPSIwIiBzdHlsZT0iZmlsbDojMjZCQ0VFOyIgZD0iTTQuNjEsNTMuMjRjLTAuMjIsMC0wLjM0LTAuMTEtMC4zNC0wLjM0ICAgICBjMC0yLjEzLTEuOC0zLjgyLTMuOTMtMy44MkMwLjExLDQ5LjA4LDAsNDguOTcsMCw0OC43NGMwLTAuMjIsMC4xMS0wLjM0LDAuMzQtMC4zNGwwLDBjMi4xMywwLDMuODItMS42OCwzLjkzLTMuODIgICAgIGMwLTAuMjMsMC4xMi0wLjM0LDAuMzQtMC4zNGMwLjIzLDAsMC4zNCwwLjExLDAuMzQsMC4zNGMwLDIuMTQsMS44LDMuODIsMy45NCwzLjgyYzAuMjIsMCwwLjMzLDAuMTIsMC4zMywwLjM0ICAgICBjMCwwLjIzLTAuMTEsMC4zNC0wLjMzLDAuMzRsMCwwYy0yLjE0LDAtMy44MywxLjY5LTMuOTQsMy44MkM0Ljk1LDUzLjAyLDQuODQsNTMuMjQsNC42MSw1My4yNEw0LjYxLDUzLjI0eiIvPiYjeGE7CQk8L2c+JiN4YTsJCTxnIGlkPSJzaGFwZTM2NDgtMTQiIHRyYW5zZm9ybT0idHJhbnNsYXRlKDAsLTUuMDYxNTMpIj4mI3hhOwkJCTx0aXRsZSBpZD0idGl0bGU5NzIzOCI+U2hlZXQuMzY0ODwvdGl0bGU+JiN4YTsJCQk8cGF0aCBpZD0icGF0aDk3MjQwIiBpbmtzY2FwZTpjb25uZWN0b3ItY3VydmF0dXJlPSIwIiBzdHlsZT0iZmlsbDojMEYwRjBGOyIgZD0iTTU2LjI0LDE3LjQ3Yy0xLjgtMi45Mi02LjE5LTMuNi0xMi45NC0xLjkxICAgICBjLTIuMDIsMC41Ni00LjE2LDEuMTItNi4wNywxLjkxYzEuMjQsMC42OCwyLjQ3LDEuMzUsMy42LDIuMjVjMS4xMi0wLjM0LDIuMjUtMC42NywzLjI2LTEuMDFjMS44LTAuNDUsMy42LTAuNjgsNS40LTAuNzkgICAgIGMyLjE0LDAsMy4zNywwLjU2LDMuODIsMS4yNGMwLjY4LDEuMTIsMCwzLjk0LTMuODIsOC40M2MtMC42NywwLjc5LTEuNDYsMS41OC0yLjI1LDIuMzdjLTQuMjcsNC4wNS04Ljg4LDcuNjUtMTMuOTUsMTAuNjggICAgIGMtNS4wNiwzLjE1LTEwLjM0LDUuNzQtMTUuOTcsNy41NGMtNi43NSwyLjE0LTExLjM2LDIuMTQtMTIuMzcsMC40NWMtMS4wMS0xLjY5LDEuMDEtNS44NSw2LjA3LTEwLjggICAgIGMtMC4zMy0xLjQ2LTAuNDUtMi45Mi0wLjQ1LTQuMjdDMi41OSw0MC43NSwwLDQ3LjA1LDIuMDIsNTAuNDNjMS4xMywxLjgsMy40OSwyLjgxLDYuODcsMi44MWM0LjA1LTAuMjIsOC4wOS0xLjAxLDExLjkyLTIuNTkgICAgIGM0Ljk1LTEuOTEsOS42Ny00LjI3LDE0LjA2LTcuMDhjNC41LTIuNyw4Ljc3LTUuODUsMTIuNzEtOS40NWMxLjU3LTEuMzUsMy4wNC0yLjgxLDQuMzktNC4zOSAgICAgQzU2LjU4LDI0LjU2LDU4LjA0LDIwLjI4LDU2LjI0LDE3LjQ3eiIvPiYjeGE7CQk8L2c+JiN4YTsJPC9nPiYjeGE7PC9nPiYjeGE7PC9zdmc+;" vertex="1" parent="r1PghD8o48_MAa_awycN-40">
          <mxGeometry x="55" y="190" width="56" height="52" as="geometry" />
        </mxCell>
        <mxCell id="r1PghD8o48_MAa_awycN-56" value="" style="image;sketch=0;aspect=fixed;html=1;points=[];align=center;fontSize=12;image=img/lib/mscae/Docker.svg;" vertex="1" parent="r1PghD8o48_MAa_awycN-40">
          <mxGeometry x="270" y="240" width="50" height="41" as="geometry" />
        </mxCell>
        <mxCell id="r1PghD8o48_MAa_awycN-50" style="edgeStyle=orthogonalEdgeStyle;rounded=0;orthogonalLoop=1;jettySize=auto;html=1;entryX=1;entryY=0.5;entryDx=0;entryDy=0;" edge="1" parent="r1PghD8o48_MAa_awycN-65" source="r1PghD8o48_MAa_awycN-28" target="r1PghD8o48_MAa_awycN-40">
          <mxGeometry relative="1" as="geometry">
            <Array as="points">
              <mxPoint x="391" y="305" />
            </Array>
          </mxGeometry>
        </mxCell>
        <mxCell id="r1PghD8o48_MAa_awycN-66" value="&lt;font size=&quot;1&quot; style=&quot;&quot;&gt;&lt;b style=&quot;font-size: 40px;&quot;&gt;BACK-END&lt;/b&gt;&lt;/font&gt;" style="text;html=1;strokeColor=none;fillColor=none;align=center;verticalAlign=middle;whiteSpace=wrap;rounded=0;" vertex="1" parent="r1PghD8o48_MAa_awycN-65">
          <mxGeometry x="670" y="20" width="260" height="70" as="geometry" />
        </mxCell>
      </root>
    </mxGraphModel>
  </diagram>
</mxfile>
